<mxfile host="app.diagrams.net" modified="2023-05-27T16:12:54.355Z" agent="Mozilla/5.0 (Windows NT 10.0; Win64; x64; rv:109.0) Gecko/20100101 Firefox/113.0" etag="2Uo6j8lHy5Y_7X0QqOfw" version="21.3.4" type="github">
  <diagram name="第 1 页" id="hEj5vsbAoklU8rWkmuRT">
    <mxGraphModel dx="2261" dy="1923" grid="1" gridSize="10" guides="1" tooltips="1" connect="1" arrows="1" fold="1" page="1" pageScale="1" pageWidth="827" pageHeight="1169" math="0" shadow="0">
      <root>
        <mxCell id="0" />
        <mxCell id="1" parent="0" />
        <UserObject label="" plantUmlData="{&#xa;  &quot;data&quot;: &quot;@startuml\nstart\n:获取input的长度n;\n:int k = 0;\n:定义索引变量 i = 0;\nwhile (i &lt; n) is (条件)\n  :获取当前字符 i;\n  if (i是&#39;(&#39;) then (yes)\n    :增加k的值;\n    if (i等于n-1) then (yes)\n      :处理 CalBracketError;\n      break;\n    else if (input[i+1]是&#39;)&#39;) then (yes)\n      :处理 CalBracketError;\n      break;\n    else if (i不等于0且input[i-1]是数字) then (yes)\n      :处理 CalOperatorError;\n      break;\n    endif\n  else if (i是&#39;)&#39;) then (yes)\n    :减少k的值;\n    if (k小于0) then (yes)\n      :处理 CalBracketError;\n      break;\n    endif\n  endif\n  :增加 i 的值;\nendwhile (条件)\nif (k不等于0) then (yes)\n  :处理 CalBracketError;\nelse\n  :重置索引变量 i = 0;\n  while (i &lt; n) is (条件)\n    :获取当前字符 i;\n    if (i是运算符) then (yes)\n      if (i等于n-1) then (yes)\n        :处理 CalOperatorError;\n        break;\n      else if ((input[i+1]不是数字且input[i+1]不是&#39;(&#39;)) then (yes)\n        :处理 CalOperatorError;\n        break;\n      else if (i等于0或(input[i-1]不是数字且input[i-1]不是&#39;)&#39;)) then (yes)\n        :处理 CalOperatorError;\n        break;\n      endif\n    endif\n    :增加 i 的值;\n  endwhile (条件)\n  :重置索引变量 i = 0;\n  while (i &lt; n) is (条件)\n    :获取当前字符 i;\n    if (i不是运算符且i是字母) then (yes)\n      :处理 CalOperatorError;\n      break;\n    else if (i是&#39;,&#39;) then (yes)\n      :处理 CalOperatorError;\n      break;\n    endif\n    :增加 i 的值;\n  endwhile (条件)\nendif\nstop\n@enduml\n&quot;,&#xa;  &quot;format&quot;: &quot;svg&quot;&#xa;}" id="yvwu3aA1u55nJHGq0hiv-4">
          <mxCell style="shape=image;noLabel=1;verticalAlign=top;aspect=fixed;imageAspect=0;image=data:image/svg+xml,PD94bWwgdmVyc2lvbj0iMS4wIiBlbmNvZGluZz0idXMtYXNjaWkiIHN0YW5kYWxvbmU9Im5vIj8+PHN2ZyB4bWxucz0iaHR0cDovL3d3dy53My5vcmcvMjAwMC9zdmciIHhtbG5zOnhsaW5rPSJodHRwOi8vd3d3LnczLm9yZy8xOTk5L3hsaW5rIiBjb250ZW50U3R5bGVUeXBlPSJ0ZXh0L2NzcyIgaGVpZ2h0PSIxNjEycHgiIHByZXNlcnZlQXNwZWN0UmF0aW89Im5vbmUiIHN0eWxlPSJ3aWR0aDoxMTEzcHg7aGVpZ2h0OjE2MTJweDtiYWNrZ3JvdW5kOiNGRkZGRkY7IiB2ZXJzaW9uPSIxLjEiIHZpZXdCb3g9IjAgMCAxMTEzIDE2MTIiIHdpZHRoPSIxMTEzcHgiIHpvb21BbmRQYW49Im1hZ25pZnkiPjxkZWZzLz48Zz48ZWxsaXBzZSBjeD0iNDQzLjUiIGN5PSIyMCIgZmlsbD0iIzIyMjIyMiIgcng9IjEwIiByeT0iMTAiIHN0eWxlPSJzdHJva2U6IzIyMjIyMjtzdHJva2Utd2lkdGg6MS4wOyIvPjxyZWN0IGZpbGw9IiNGMUYxRjEiIGhlaWdodD0iMzIuODQzOCIgcng9IjEyLjUiIHJ5PSIxMi41IiBzdHlsZT0ic3Ryb2tlOiMxODE4MTg7c3Ryb2tlLXdpZHRoOjAuNTsiIHdpZHRoPSIxMjAiIHg9IjM4My41IiB5PSI1MCIvPjx0ZXh0IGZpbGw9IiMwMDAwMDAiIGZvbnQtZmFtaWx5PSJzYW5zLXNlcmlmIiBmb250LXNpemU9IjEyIiBsZW5ndGhBZGp1c3Q9InNwYWNpbmciIHRleHRMZW5ndGg9IjEwMCIgeD0iMzkzLjUiIHk9IjcxLjM0MzgiPiYjMzM3MTk7JiMyMTQ2MjtpbnB1dCYjMzAzNDA7JiMzODI3MTsmIzI0MjMwO248L3RleHQ+PHJlY3QgZmlsbD0iI0YxRjFGMSIgaGVpZ2h0PSIzMi44NDM4IiByeD0iMTIuNSIgcnk9IjEyLjUiIHN0eWxlPSJzdHJva2U6IzE4MTgxODtzdHJva2Utd2lkdGg6MC41OyIgd2lkdGg9Ijc1IiB4PSI0MDYiIHk9IjEwMi44NDM4Ii8+PHRleHQgZmlsbD0iIzAwMDAwMCIgZm9udC1mYW1pbHk9InNhbnMtc2VyaWYiIGZvbnQtc2l6ZT0iMTIiIGxlbmd0aEFkanVzdD0ic3BhY2luZyIgdGV4dExlbmd0aD0iNTUiIHg9IjQxNiIgeT0iMTI0LjE4NzUiPmludCBrID0gMDwvdGV4dD48cmVjdCBmaWxsPSIjRjFGMUYxIiBoZWlnaHQ9IjMyLjg0MzgiIHJ4PSIxMi41IiByeT0iMTIuNSIgc3R5bGU9InN0cm9rZTojMTgxODE4O3N0cm9rZS13aWR0aDowLjU7IiB3aWR0aD0iMTI4IiB4PSIzNzkuNSIgeT0iMTU1LjY4NzUiLz48dGV4dCBmaWxsPSIjMDAwMDAwIiBmb250LWZhbWlseT0ic2Fucy1zZXJpZiIgZm9udC1zaXplPSIxMiIgbGVuZ3RoQWRqdXN0PSJzcGFjaW5nIiB0ZXh0TGVuZ3RoPSIxMDgiIHg9IjM4OS41IiB5PSIxNzcuMDMxMyI+JiMyMzQ1MDsmIzIwMDQxOyYjMzIwMzQ7JiMyNDM0MTsmIzIxNDY0OyYjMzczMjc7IGkgPSAwPC90ZXh0PjxyZWN0IGZpbGw9IiNGMUYxRjEiIGhlaWdodD0iMzIuODQzOCIgcng9IjEyLjUiIHJ5PSIxMi41IiBzdHlsZT0ic3Ryb2tlOiMxODE4MTg7c3Ryb2tlLXdpZHRoOjAuNTsiIHdpZHRoPSIxMDQiIHg9IjM5MS41IiB5PSIyNjQuNDI5NyIvPjx0ZXh0IGZpbGw9IiMwMDAwMDAiIGZvbnQtZmFtaWx5PSJzYW5zLXNlcmlmIiBmb250LXNpemU9IjEyIiBsZW5ndGhBZGp1c3Q9InNwYWNpbmciIHRleHRMZW5ndGg9Ijg0IiB4PSI0MDEuNSIgeT0iMjg1Ljc3MzQiPiYjMzM3MTk7JiMyMTQ2MjsmIzI0NDAzOyYjMjEwNjk7JiMyMzM4MzsmIzMxNTI2OyBpPC90ZXh0Pjxwb2x5Z29uIGZpbGw9IiNGMUYxRjEiIHBvaW50cz0iMzAwLDMxNy4yNzM0LDMzNSwzMTcuMjczNCwzNDcsMzI5LjI3MzQsMzM1LDM0MS4yNzM0LDMwMCwzNDEuMjczNCwyODgsMzI5LjI3MzQsMzAwLDMxNy4yNzM0IiBzdHlsZT0ic3Ryb2tlOiMxODE4MTg7c3Ryb2tlLXdpZHRoOjAuNTsiLz48dGV4dCBmaWxsPSIjMDAwMDAwIiBmb250LWZhbWlseT0ic2Fucy1zZXJpZiIgZm9udC1zaXplPSIxMSIgbGVuZ3RoQWRqdXN0PSJzcGFjaW5nIiB0ZXh0TGVuZ3RoPSIxOCIgeD0iMzIxLjUiIHk9IjM1MS42NzE5Ij55ZXM8L3RleHQ+PHRleHQgZmlsbD0iIzAwMDAwMCIgZm9udC1mYW1pbHk9InNhbnMtc2VyaWYiIGZvbnQtc2l6ZT0iMTEiIGxlbmd0aEFkanVzdD0ic3BhY2luZyIgdGV4dExlbmd0aD0iMzUiIHg9IjMwMCIgeT0iMzMzLjc4NTIiPmkmIzI2MTU5OycoJzwvdGV4dD48cmVjdCBmaWxsPSIjRjFGMUYxIiBoZWlnaHQ9IjMyLjg0MzgiIHJ4PSIxMi41IiByeT0iMTIuNSIgc3R5bGU9InN0cm9rZTojMTgxODE4O3N0cm9rZS13aWR0aDowLjU7IiB3aWR0aD0iNzQiIHg9IjI4MC41IiB5PSIzNzMuMDQ2OSIvPjx0ZXh0IGZpbGw9IiMwMDAwMDAiIGZvbnQtZmFtaWx5PSJzYW5zLXNlcmlmIiBmb250LXNpemU9IjEyIiBsZW5ndGhBZGp1c3Q9InNwYWNpbmciIHRleHRMZW5ndGg9IjU0IiB4PSIyOTAuNSIgeT0iMzk0LjM5MDYiPiYjMjI2ODY7JiMyMTE1MjtrJiMzMDM0MDsmIzIwNTQwOzwvdGV4dD48cG9seWdvbiBmaWxsPSIjRjFGMUYxIiBwb2ludHM9Ijg4LDQ1MC44OTA2LDEzNCw0NTAuODkwNiwxNDYsNDYyLjg5MDYsMTM0LDQ3NC44OTA2LDg4LDQ3NC44OTA2LDc2LDQ2Mi44OTA2LDg4LDQ1MC44OTA2IiBzdHlsZT0ic3Ryb2tlOiMxODE4MTg7c3Ryb2tlLXdpZHRoOjAuNTsiLz48dGV4dCBmaWxsPSIjMDAwMDAwIiBmb250LWZhbWlseT0ic2Fucy1zZXJpZiIgZm9udC1zaXplPSIxMSIgbGVuZ3RoQWRqdXN0PSJzcGFjaW5nIiB0ZXh0TGVuZ3RoPSIxOCIgeD0iMTE1IiB5PSI0ODUuMjg5MSI+eWVzPC90ZXh0Pjx0ZXh0IGZpbGw9IiMwMDAwMDAiIGZvbnQtZmFtaWx5PSJzYW5zLXNlcmlmIiBmb250LXNpemU9IjExIiBsZW5ndGhBZGp1c3Q9InNwYWNpbmciIHRleHRMZW5ndGg9IjQ2IiB4PSI4OCIgeT0iNDY3LjQwMjMiPmkmIzMxNTYxOyYjMjAxMTA7bi0xPC90ZXh0PjxyZWN0IGZpbGw9IiNGMUYxRjEiIGhlaWdodD0iMzIuODQzOCIgcng9IjEyLjUiIHJ5PSIxMi41IiBzdHlsZT0ic3Ryb2tlOiMxODE4MTg7c3Ryb2tlLXdpZHRoOjAuNTsiIHdpZHRoPSIxNTAiIHg9IjM2IiB5PSI1MDYuNjY0MSIvPjx0ZXh0IGZpbGw9IiMwMDAwMDAiIGZvbnQtZmFtaWx5PSJzYW5zLXNlcmlmIiBmb250LXNpemU9IjEyIiBsZW5ndGhBZGp1c3Q9InNwYWNpbmciIHRleHRMZW5ndGg9IjEzMCIgeD0iNDYiIHk9IjUyOC4wMDc4Ij4mIzIyNzg4OyYjMjk3MDI7IENhbEJyYWNrZXRFcnJvcjwvdGV4dD48cG9seWdvbiBmaWxsPSIjRjFGMUYxIiBwb2ludHM9IjIzNi41LDQ1MC44OTA2LDMyNS41LDQ1MC44OTA2LDMzNy41LDQ2Mi44OTA2LDMyNS41LDQ3NC44OTA2LDIzNi41LDQ3NC44OTA2LDIyNC41LDQ2Mi44OTA2LDIzNi41LDQ1MC44OTA2IiBzdHlsZT0ic3Ryb2tlOiMxODE4MTg7c3Ryb2tlLXdpZHRoOjAuNTsiLz48dGV4dCBmaWxsPSIjMDAwMDAwIiBmb250LWZhbWlseT0ic2Fucy1zZXJpZiIgZm9udC1zaXplPSIxMSIgbGVuZ3RoQWRqdXN0PSJzcGFjaW5nIiB0ZXh0TGVuZ3RoPSIxOCIgeD0iMjg1IiB5PSI0ODUuMjg5MSI+eWVzPC90ZXh0Pjx0ZXh0IGZpbGw9IiMwMDAwMDAiIGZvbnQtZmFtaWx5PSJzYW5zLXNlcmlmIiBmb250LXNpemU9IjExIiBsZW5ndGhBZGp1c3Q9InNwYWNpbmciIHRleHRMZW5ndGg9Ijg5IiB4PSIyMzYuNSIgeT0iNDY3LjQwMjMiPmlucHV0W2krMV0mIzI2MTU5OycpJzwvdGV4dD48cmVjdCBmaWxsPSIjRjFGMUYxIiBoZWlnaHQ9IjMyLjg0MzgiIHJ4PSIxMi41IiByeT0iMTIuNSIgc3R5bGU9InN0cm9rZTojMTgxODE4O3N0cm9rZS13aWR0aDowLjU7IiB3aWR0aD0iMTUwIiB4PSIyMDYiIHk9IjUwNi42NjQxIi8+PHRleHQgZmlsbD0iIzAwMDAwMCIgZm9udC1mYW1pbHk9InNhbnMtc2VyaWYiIGZvbnQtc2l6ZT0iMTIiIGxlbmd0aEFkanVzdD0ic3BhY2luZyIgdGV4dExlbmd0aD0iMTMwIiB4PSIyMTYiIHk9IjUyOC4wMDc4Ij4mIzIyNzg4OyYjMjk3MDI7IENhbEJyYWNrZXRFcnJvcjwvdGV4dD48cG9seWdvbiBmaWxsPSIjRjFGMUYxIiBwb2ludHM9IjM4OCw0NTAuODkwNiw1MzcsNDUwLjg5MDYsNTQ5LDQ2Mi44OTA2LDUzNyw0NzQuODkwNiwzODgsNDc0Ljg5MDYsMzc2LDQ2Mi44OTA2LDM4OCw0NTAuODkwNiIgc3R5bGU9InN0cm9rZTojMTgxODE4O3N0cm9rZS13aWR0aDowLjU7Ii8+PHRleHQgZmlsbD0iIzAwMDAwMCIgZm9udC1mYW1pbHk9InNhbnMtc2VyaWYiIGZvbnQtc2l6ZT0iMTEiIGxlbmd0aEFkanVzdD0ic3BhY2luZyIgdGV4dExlbmd0aD0iMTgiIHg9IjQ2Ni41IiB5PSI0ODUuMjg5MSI+eWVzPC90ZXh0Pjx0ZXh0IGZpbGw9IiMwMDAwMDAiIGZvbnQtZmFtaWx5PSJzYW5zLXNlcmlmIiBmb250LXNpemU9IjExIiBsZW5ndGhBZGp1c3Q9InNwYWNpbmciIHRleHRMZW5ndGg9IjE0OSIgeD0iMzg4IiB5PSI0NjcuNDAyMyI+aSYjMTk5ODE7JiMzMTU2MTsmIzIwMTEwOzAmIzE5OTg4O2lucHV0W2ktMV0mIzI2MTU5OyYjMjU5Njg7JiMyMzM4Mzs8L3RleHQ+PHJlY3QgZmlsbD0iI0YxRjFGMSIgaGVpZ2h0PSIzMi44NDM4IiByeD0iMTIuNSIgcnk9IjEyLjUiIHN0eWxlPSJzdHJva2U6IzE4MTgxODtzdHJva2Utd2lkdGg6MC41OyIgd2lkdGg9IjE1OSIgeD0iMzgzIiB5PSI1MDYuNjY0MSIvPjx0ZXh0IGZpbGw9IiMwMDAwMDAiIGZvbnQtZmFtaWx5PSJzYW5zLXNlcmlmIiBmb250LXNpemU9IjEyIiBsZW5ndGhBZGp1c3Q9InNwYWNpbmciIHRleHRMZW5ndGg9IjEzOSIgeD0iMzkzIiB5PSI1MjguMDA3OCI+JiMyMjc4ODsmIzI5NzAyOyBDYWxPcGVyYXRvckVycm9yPC90ZXh0Pjxwb2x5Z29uIGZpbGw9IiNGMUYxRjEiIHBvaW50cz0iNjg2LjUsMzE3LjI3MzQsNzIxLjUsMzE3LjI3MzQsNzMzLjUsMzI5LjI3MzQsNzIxLjUsMzQxLjI3MzQsNjg2LjUsMzQxLjI3MzQsNjc0LjUsMzI5LjI3MzQsNjg2LjUsMzE3LjI3MzQiIHN0eWxlPSJzdHJva2U6IzE4MTgxODtzdHJva2Utd2lkdGg6MC41OyIvPjx0ZXh0IGZpbGw9IiMwMDAwMDAiIGZvbnQtZmFtaWx5PSJzYW5zLXNlcmlmIiBmb250LXNpemU9IjExIiBsZW5ndGhBZGp1c3Q9InNwYWNpbmciIHRleHRMZW5ndGg9IjE4IiB4PSI3MDgiIHk9IjM1MS42NzE5Ij55ZXM8L3RleHQ+PHRleHQgZmlsbD0iIzAwMDAwMCIgZm9udC1mYW1pbHk9InNhbnMtc2VyaWYiIGZvbnQtc2l6ZT0iMTEiIGxlbmd0aEFkanVzdD0ic3BhY2luZyIgdGV4dExlbmd0aD0iMzUiIHg9IjY4Ni41IiB5PSIzMzMuNzg1MiI+aSYjMjYxNTk7JyknPC90ZXh0PjxyZWN0IGZpbGw9IiNGMUYxRjEiIGhlaWdodD0iMzIuODQzOCIgcng9IjEyLjUiIHJ5PSIxMi41IiBzdHlsZT0ic3Ryb2tlOiMxODE4MTg7c3Ryb2tlLXdpZHRoOjAuNTsiIHdpZHRoPSI3NCIgeD0iNjY3IiB5PSIzNzMuMDQ2OSIvPjx0ZXh0IGZpbGw9IiMwMDAwMDAiIGZvbnQtZmFtaWx5PSJzYW5zLXNlcmlmIiBmb250LXNpemU9IjEyIiBsZW5ndGhBZGp1c3Q9InNwYWNpbmciIHRleHRMZW5ndGg9IjU0IiB4PSI2NzciIHk9IjM5NC4zOTA2Ij4mIzIwOTQzOyYjMjM1Njk7ayYjMzAzNDA7JiMyMDU0MDs8L3RleHQ+PHJlY3QgZmlsbD0iI0YxRjFGMSIgaGVpZ2h0PSIzMi44NDM4IiByeD0iMTIuNSIgcnk9IjEyLjUiIHN0eWxlPSJzdHJva2U6IzE4MTgxODtzdHJva2Utd2lkdGg6MC41OyIgd2lkdGg9IjE1MCIgeD0iNjI5IiB5PSI0NzMuODkwNiIvPjx0ZXh0IGZpbGw9IiMwMDAwMDAiIGZvbnQtZmFtaWx5PSJzYW5zLXNlcmlmIiBmb250LXNpemU9IjEyIiBsZW5ndGhBZGp1c3Q9InNwYWNpbmciIHRleHRMZW5ndGg9IjEzMCIgeD0iNjM5IiB5PSI0OTUuMjM0NCI+JiMyMjc4ODsmIzI5NzAyOyBDYWxCcmFja2V0RXJyb3I8L3RleHQ+PHBvbHlnb24gZmlsbD0iI0YxRjFGMSIgcG9pbnRzPSI2ODcsNDI1Ljg5MDYsNzIxLDQyNS44OTA2LDczMyw0MzcuODkwNiw3MjEsNDQ5Ljg5MDYsNjg3LDQ0OS44OTA2LDY3NSw0MzcuODkwNiw2ODcsNDI1Ljg5MDYiIHN0eWxlPSJzdHJva2U6IzE4MTgxODtzdHJva2Utd2lkdGg6MC41OyIvPjx0ZXh0IGZpbGw9IiMwMDAwMDAiIGZvbnQtZmFtaWx5PSJzYW5zLXNlcmlmIiBmb250LXNpemU9IjExIiBsZW5ndGhBZGp1c3Q9InNwYWNpbmciIHRleHRMZW5ndGg9IjE4IiB4PSI3MDgiIHk9IjQ2MC4yODkxIj55ZXM8L3RleHQ+PHRleHQgZmlsbD0iIzAwMDAwMCIgZm9udC1mYW1pbHk9InNhbnMtc2VyaWYiIGZvbnQtc2l6ZT0iMTEiIGxlbmd0aEFkanVzdD0ic3BhY2luZyIgdGV4dExlbmd0aD0iMzQiIHg9IjY4NyIgeT0iNDQyLjQwMjMiPmsmIzIzNTY3OyYjMjAxMTA7MDwvdGV4dD48cmVjdCBmaWxsPSIjRjFGMUYxIiBoZWlnaHQ9IjMyLjg0MzgiIHJ4PSIxMi41IiByeT0iMTIuNSIgc3R5bGU9InN0cm9rZTojMTgxODE4O3N0cm9rZS13aWR0aDowLjU7IiB3aWR0aD0iODYiIHg9IjQwMC41IiB5PSI2MTQuNTA3OCIvPjx0ZXh0IGZpbGw9IiMwMDAwMDAiIGZvbnQtZmFtaWx5PSJzYW5zLXNlcmlmIiBmb250LXNpemU9IjEyIiBsZW5ndGhBZGp1c3Q9InNwYWNpbmciIHRleHRMZW5ndGg9IjY2IiB4PSI0MTAuNSIgeT0iNjM1Ljg1MTYiPiYjMjI2ODY7JiMyMTE1MjsgaSAmIzMwMzQwOyYjMjA1NDA7PC90ZXh0Pjxwb2x5Z29uIGZpbGw9IiNGMUYxRjEiIHBvaW50cz0iNDI4LjUsMjA4LjUzMTMsNDU4LjUsMjA4LjUzMTMsNDcwLjUsMjIwLjUzMTMsNDU4LjUsMjMyLjUzMTMsNDI4LjUsMjMyLjUzMTMsNDE2LjUsMjIwLjUzMTMsNDI4LjUsMjA4LjUzMTMiIHN0eWxlPSJzdHJva2U6IzE4MTgxODtzdHJva2Utd2lkdGg6MC41OyIvPjx0ZXh0IGZpbGw9IiMwMDAwMDAiIGZvbnQtZmFtaWx5PSJzYW5zLXNlcmlmIiBmb250LXNpemU9IjExIiBsZW5ndGhBZGp1c3Q9InNwYWNpbmciIHRleHRMZW5ndGg9IjIyIiB4PSI0NDcuNSIgeT0iMjQyLjkyOTciPiYjMjY0NjU7JiMyMDIxNDs8L3RleHQ+PHRleHQgZmlsbD0iIzAwMDAwMCIgZm9udC1mYW1pbHk9InNhbnMtc2VyaWYiIGZvbnQtc2l6ZT0iMTEiIGxlbmd0aEFkanVzdD0ic3BhY2luZyIgdGV4dExlbmd0aD0iMzAiIHg9IjQyOC41IiB5PSIyMjUuMDQzIj5pICZsdDsgbjwvdGV4dD48dGV4dCBmaWxsPSIjMDAwMDAwIiBmb250LWZhbWlseT0ic2Fucy1zZXJpZiIgZm9udC1zaXplPSIxMSIgbGVuZ3RoQWRqdXN0PSJzcGFjaW5nIiB0ZXh0TGVuZ3RoPSIyMiIgeD0iMzk0LjUiIHk9IjIxOS4xNTYzIj4mIzI2NDY1OyYjMjAyMTQ7PC90ZXh0Pjxwb2x5Z29uIGZpbGw9IiNGMUYxRjEiIHBvaW50cz0iNDIxLDY4OS4zNTE2LDQ2Niw2ODkuMzUxNiw0NzgsNzAxLjM1MTYsNDY2LDcxMy4zNTE2LDQyMSw3MTMuMzUxNiw0MDksNzAxLjM1MTYsNDIxLDY4OS4zNTE2IiBzdHlsZT0ic3Ryb2tlOiMxODE4MTg7c3Ryb2tlLXdpZHRoOjAuNTsiLz48dGV4dCBmaWxsPSIjMDAwMDAwIiBmb250LWZhbWlseT0ic2Fucy1zZXJpZiIgZm9udC1zaXplPSIxMSIgbGVuZ3RoQWRqdXN0PSJzcGFjaW5nIiB0ZXh0TGVuZ3RoPSI0NSIgeD0iNDIxIiB5PSI3MDUuODYzMyI+ayYjMTk5ODE7JiMzMTU2MTsmIzIwMTEwOzA8L3RleHQ+PHRleHQgZmlsbD0iIzAwMDAwMCIgZm9udC1mYW1pbHk9InNhbnMtc2VyaWYiIGZvbnQtc2l6ZT0iMTEiIGxlbmd0aEFkanVzdD0ic3BhY2luZyIgdGV4dExlbmd0aD0iMTgiIHg9IjM5MSIgeT0iNjk5Ljk3NjYiPnllczwvdGV4dD48cmVjdCBmaWxsPSIjRjFGMUYxIiBoZWlnaHQ9IjMyLjg0MzgiIHJ4PSIxMi41IiByeT0iMTIuNSIgc3R5bGU9InN0cm9rZTojMTgxODE4O3N0cm9rZS13aWR0aDowLjU7IiB3aWR0aD0iMTUwIiB4PSIxMDUiIHk9IjcyMy4zNTE2Ii8+PHRleHQgZmlsbD0iIzAwMDAwMCIgZm9udC1mYW1pbHk9InNhbnMtc2VyaWYiIGZvbnQtc2l6ZT0iMTIiIGxlbmd0aEFkanVzdD0ic3BhY2luZyIgdGV4dExlbmd0aD0iMTMwIiB4PSIxMTUiIHk9Ijc0NC42OTUzIj4mIzIyNzg4OyYjMjk3MDI7IENhbEJyYWNrZXRFcnJvcjwvdGV4dD48cmVjdCBmaWxsPSIjRjFGMUYxIiBoZWlnaHQ9IjMyLjg0MzgiIHJ4PSIxMi41IiByeT0iMTIuNSIgc3R5bGU9InN0cm9rZTojMTgxODE4O3N0cm9rZS13aWR0aDowLjU7IiB3aWR0aD0iMTI4IiB4PSI2NDMiIHk9IjcyMy4zNTE2Ii8+PHRleHQgZmlsbD0iIzAwMDAwMCIgZm9udC1mYW1pbHk9InNhbnMtc2VyaWYiIGZvbnQtc2l6ZT0iMTIiIGxlbmd0aEFkanVzdD0ic3BhY2luZyIgdGV4dExlbmd0aD0iMTA4IiB4PSI2NTMiIHk9Ijc0NC42OTUzIj4mIzM3MzI1OyYjMzI2MjI7JiMzMjAzNDsmIzI0MzQxOyYjMjE0NjQ7JiMzNzMyNzsgaSA9IDA8L3RleHQ+PHJlY3QgZmlsbD0iI0YxRjFGMSIgaGVpZ2h0PSIzMi44NDM4IiByeD0iMTIuNSIgcnk9IjEyLjUiIHN0eWxlPSJzdHJva2U6IzE4MTgxODtzdHJva2Utd2lkdGg6MC41OyIgd2lkdGg9IjEwNCIgeD0iNjU1IiB5PSI4MzIuMDkzOCIvPjx0ZXh0IGZpbGw9IiMwMDAwMDAiIGZvbnQtZmFtaWx5PSJzYW5zLXNlcmlmIiBmb250LXNpemU9IjEyIiBsZW5ndGhBZGp1c3Q9InNwYWNpbmciIHRleHRMZW5ndGg9Ijg0IiB4PSI2NjUiIHk9Ijg1My40Mzc1Ij4mIzMzNzE5OyYjMjE0NjI7JiMyNDQwMzsmIzIxMDY5OyYjMjMzODM7JiMzMTUyNjsgaTwvdGV4dD48cG9seWdvbiBmaWxsPSIjRjFGMUYxIiBwb2ludHM9IjM2NS41LDk0MC44MzU5LDQxMS41LDk0MC44MzU5LDQyMy41LDk1Mi44MzU5LDQxMS41LDk2NC44MzU5LDM2NS41LDk2NC44MzU5LDM1My41LDk1Mi44MzU5LDM2NS41LDk0MC44MzU5IiBzdHlsZT0ic3Ryb2tlOiMxODE4MTg7c3Ryb2tlLXdpZHRoOjAuNTsiLz48dGV4dCBmaWxsPSIjMDAwMDAwIiBmb250LWZhbWlseT0ic2Fucy1zZXJpZiIgZm9udC1zaXplPSIxMSIgbGVuZ3RoQWRqdXN0PSJzcGFjaW5nIiB0ZXh0TGVuZ3RoPSIxOCIgeD0iMzkyLjUiIHk9Ijk3NS4yMzQ0Ij55ZXM8L3RleHQ+PHRleHQgZmlsbD0iIzAwMDAwMCIgZm9udC1mYW1pbHk9InNhbnMtc2VyaWYiIGZvbnQtc2l6ZT0iMTEiIGxlbmd0aEFkanVzdD0ic3BhY2luZyIgdGV4dExlbmd0aD0iNDYiIHg9IjM2NS41IiB5PSI5NTcuMzQ3NyI+aSYjMzE1NjE7JiMyMDExMDtuLTE8L3RleHQ+PHJlY3QgZmlsbD0iI0YxRjFGMSIgaGVpZ2h0PSIzMi44NDM4IiByeD0iMTIuNSIgcnk9IjEyLjUiIHN0eWxlPSJzdHJva2U6IzE4MTgxODtzdHJva2Utd2lkdGg6MC41OyIgd2lkdGg9IjE1OSIgeD0iMzA5IiB5PSI5OTYuNjA5NCIvPjx0ZXh0IGZpbGw9IiMwMDAwMDAiIGZvbnQtZmFtaWx5PSJzYW5zLXNlcmlmIiBmb250LXNpemU9IjEyIiBsZW5ndGhBZGp1c3Q9InNwYWNpbmciIHRleHRMZW5ndGg9IjEzOSIgeD0iMzE5IiB5PSIxMDE3Ljk1MzEiPiYjMjI3ODg7JiMyOTcwMjsgQ2FsT3BlcmF0b3JFcnJvcjwvdGV4dD48cG9seWdvbiBmaWxsPSIjRjFGMUYxIiBwb2ludHM9IjUwMCw5NDAuODM1OSw3MjcsOTQwLjgzNTksNzM5LDk1Mi44MzU5LDcyNyw5NjQuODM1OSw1MDAsOTY0LjgzNTksNDg4LDk1Mi44MzU5LDUwMCw5NDAuODM1OSIgc3R5bGU9InN0cm9rZTojMTgxODE4O3N0cm9rZS13aWR0aDowLjU7Ii8+PHRleHQgZmlsbD0iIzAwMDAwMCIgZm9udC1mYW1pbHk9InNhbnMtc2VyaWYiIGZvbnQtc2l6ZT0iMTEiIGxlbmd0aEFkanVzdD0ic3BhY2luZyIgdGV4dExlbmd0aD0iMTgiIHg9IjYxNy41IiB5PSI5NzUuMjM0NCI+eWVzPC90ZXh0Pjx0ZXh0IGZpbGw9IiMwMDAwMDAiIGZvbnQtZmFtaWx5PSJzYW5zLXNlcmlmIiBmb250LXNpemU9IjExIiBsZW5ndGhBZGp1c3Q9InNwYWNpbmciIHRleHRMZW5ndGg9IjIyNyIgeD0iNTAwIiB5PSI5NTcuMzQ3NyI+KGlucHV0W2krMV0mIzE5OTgxOyYjMjYxNTk7JiMyNTk2ODsmIzIzMzgzOyYjMTk5ODg7aW5wdXRbaSsxXSYjMTk5ODE7JiMyNjE1OTsnKCcpPC90ZXh0PjxyZWN0IGZpbGw9IiNGMUYxRjEiIGhlaWdodD0iMzIuODQzOCIgcng9IjEyLjUiIHJ5PSIxMi41IiBzdHlsZT0ic3Ryb2tlOiMxODE4MTg7c3Ryb2tlLXdpZHRoOjAuNTsiIHdpZHRoPSIxNTkiIHg9IjUzNCIgeT0iOTk2LjYwOTQiLz48dGV4dCBmaWxsPSIjMDAwMDAwIiBmb250LWZhbWlseT0ic2Fucy1zZXJpZiIgZm9udC1zaXplPSIxMiIgbGVuZ3RoQWRqdXN0PSJzcGFjaW5nIiB0ZXh0TGVuZ3RoPSIxMzkiIHg9IjU0NCIgeT0iMTAxNy45NTMxIj4mIzIyNzg4OyYjMjk3MDI7IENhbE9wZXJhdG9yRXJyb3I8L3RleHQ+PHBvbHlnb24gZmlsbD0iI0YxRjFGMSIgcG9pbnRzPSI3NzEsOTQwLjgzNTksMTA0Myw5NDAuODM1OSwxMDU1LDk1Mi44MzU5LDEwNDMsOTY0LjgzNTksNzcxLDk2NC44MzU5LDc1OSw5NTIuODM1OSw3NzEsOTQwLjgzNTkiIHN0eWxlPSJzdHJva2U6IzE4MTgxODtzdHJva2Utd2lkdGg6MC41OyIvPjx0ZXh0IGZpbGw9IiMwMDAwMDAiIGZvbnQtZmFtaWx5PSJzYW5zLXNlcmlmIiBmb250LXNpemU9IjExIiBsZW5ndGhBZGp1c3Q9InNwYWNpbmciIHRleHRMZW5ndGg9IjE4IiB4PSI5MTEiIHk9Ijk3NS4yMzQ0Ij55ZXM8L3RleHQ+PHRleHQgZmlsbD0iIzAwMDAwMCIgZm9udC1mYW1pbHk9InNhbnMtc2VyaWYiIGZvbnQtc2l6ZT0iMTEiIGxlbmd0aEFkanVzdD0ic3BhY2luZyIgdGV4dExlbmd0aD0iMjcyIiB4PSI3NzEiIHk9Ijk1Ny4zNDc3Ij5pJiMzMTU2MTsmIzIwMTEwOzAmIzI1MTEwOyhpbnB1dFtpLTFdJiMxOTk4MTsmIzI2MTU5OyYjMjU5Njg7JiMyMzM4MzsmIzE5OTg4O2lucHV0W2ktMV0mIzE5OTgxOyYjMjYxNTk7JyknKTwvdGV4dD48cmVjdCBmaWxsPSIjRjFGMUYxIiBoZWlnaHQ9IjMyLjg0MzgiIHJ4PSIxMi41IiByeT0iMTIuNSIgc3R5bGU9InN0cm9rZTojMTgxODE4O3N0cm9rZS13aWR0aDowLjU7IiB3aWR0aD0iMTU5IiB4PSI4MjcuNSIgeT0iOTk2LjYwOTQiLz48dGV4dCBmaWxsPSIjMDAwMDAwIiBmb250LWZhbWlseT0ic2Fucy1zZXJpZiIgZm9udC1zaXplPSIxMiIgbGVuZ3RoQWRqdXN0PSJzcGFjaW5nIiB0ZXh0TGVuZ3RoPSIxMzkiIHg9IjgzNy41IiB5PSIxMDE3Ljk1MzEiPiYjMjI3ODg7JiMyOTcwMjsgQ2FsT3BlcmF0b3JFcnJvcjwvdGV4dD48cG9seWdvbiBmaWxsPSIjRjFGMUYxIiBwb2ludHM9IjY4Miw4ODQuOTM3NSw3MzIsODg0LjkzNzUsNzQ0LDg5Ni45Mzc1LDczMiw5MDguOTM3NSw2ODIsOTA4LjkzNzUsNjcwLDg5Ni45Mzc1LDY4Miw4ODQuOTM3NSIgc3R5bGU9InN0cm9rZTojMTgxODE4O3N0cm9rZS13aWR0aDowLjU7Ii8+PHRleHQgZmlsbD0iIzAwMDAwMCIgZm9udC1mYW1pbHk9InNhbnMtc2VyaWYiIGZvbnQtc2l6ZT0iMTEiIGxlbmd0aEFkanVzdD0ic3BhY2luZyIgdGV4dExlbmd0aD0iMTgiIHg9IjcxMSIgeT0iOTE5LjMzNTkiPnllczwvdGV4dD48dGV4dCBmaWxsPSIjMDAwMDAwIiBmb250LWZhbWlseT0ic2Fucy1zZXJpZiIgZm9udC1zaXplPSIxMSIgbGVuZ3RoQWRqdXN0PSJzcGFjaW5nIiB0ZXh0TGVuZ3RoPSI1MCIgeD0iNjgyIiB5PSI5MDEuNDQ5MiI+aSYjMjYxNTk7JiMzNjgxNjsmIzMxNjM5OyYjMzE1MjY7PC90ZXh0Pjxwb2x5Z29uIGZpbGw9IiNGMUYxRjEiIHBvaW50cz0iNzA3LDEwNjcuNDUzMSw3MTksMTA3OS40NTMxLDcwNywxMDkxLjQ1MzEsNjk1LDEwNzkuNDUzMSw3MDcsMTA2Ny40NTMxIiBzdHlsZT0ic3Ryb2tlOiMxODE4MTg7c3Ryb2tlLXdpZHRoOjAuNTsiLz48cmVjdCBmaWxsPSIjRjFGMUYxIiBoZWlnaHQ9IjMyLjg0MzgiIHJ4PSIxMi41IiByeT0iMTIuNSIgc3R5bGU9InN0cm9rZTojMTgxODE4O3N0cm9rZS13aWR0aDowLjU7IiB3aWR0aD0iODYiIHg9IjY2NCIgeT0iMTExMS40NTMxIi8+PHRleHQgZmlsbD0iIzAwMDAwMCIgZm9udC1mYW1pbHk9InNhbnMtc2VyaWYiIGZvbnQtc2l6ZT0iMTIiIGxlbmd0aEFkanVzdD0ic3BhY2luZyIgdGV4dExlbmd0aD0iNjYiIHg9IjY3NCIgeT0iMTEzMi43OTY5Ij4mIzIyNjg2OyYjMjExNTI7IGkgJiMzMDM0MDsmIzIwNTQwOzwvdGV4dD48cG9seWdvbiBmaWxsPSIjRjFGMUYxIiBwb2ludHM9IjY5Miw3NzYuMTk1Myw3MjIsNzc2LjE5NTMsNzM0LDc4OC4xOTUzLDcyMiw4MDAuMTk1Myw2OTIsODAwLjE5NTMsNjgwLDc4OC4xOTUzLDY5Miw3NzYuMTk1MyIgc3R5bGU9InN0cm9rZTojMTgxODE4O3N0cm9rZS13aWR0aDowLjU7Ii8+PHRleHQgZmlsbD0iIzAwMDAwMCIgZm9udC1mYW1pbHk9InNhbnMtc2VyaWYiIGZvbnQtc2l6ZT0iMTEiIGxlbmd0aEFkanVzdD0ic3BhY2luZyIgdGV4dExlbmd0aD0iMjIiIHg9IjcxMSIgeT0iODEwLjU5MzgiPiYjMjY0NjU7JiMyMDIxNDs8L3RleHQ+PHRleHQgZmlsbD0iIzAwMDAwMCIgZm9udC1mYW1pbHk9InNhbnMtc2VyaWYiIGZvbnQtc2l6ZT0iMTEiIGxlbmd0aEFkanVzdD0ic3BhY2luZyIgdGV4dExlbmd0aD0iMzAiIHg9IjY5MiIgeT0iNzkyLjcwNyI+aSAmbHQ7IG48L3RleHQ+PHRleHQgZmlsbD0iIzAwMDAwMCIgZm9udC1mYW1pbHk9InNhbnMtc2VyaWYiIGZvbnQtc2l6ZT0iMTEiIGxlbmd0aEFkanVzdD0ic3BhY2luZyIgdGV4dExlbmd0aD0iMjIiIHg9IjY1OCIgeT0iNzg2LjgyMDMiPiYjMjY0NjU7JiMyMDIxNDs8L3RleHQ+PHJlY3QgZmlsbD0iI0YxRjFGMSIgaGVpZ2h0PSIzMi44NDM4IiByeD0iMTIuNSIgcnk9IjEyLjUiIHN0eWxlPSJzdHJva2U6IzE4MTgxODtzdHJva2Utd2lkdGg6MC41OyIgd2lkdGg9IjEyOCIgeD0iNjQzIiB5PSIxMTg2LjI5NjkiLz48dGV4dCBmaWxsPSIjMDAwMDAwIiBmb250LWZhbWlseT0ic2Fucy1zZXJpZiIgZm9udC1zaXplPSIxMiIgbGVuZ3RoQWRqdXN0PSJzcGFjaW5nIiB0ZXh0TGVuZ3RoPSIxMDgiIHg9IjY1MyIgeT0iMTIwNy42NDA2Ij4mIzM3MzI1OyYjMzI2MjI7JiMzMjAzNDsmIzI0MzQxOyYjMjE0NjQ7JiMzNzMyNzsgaSA9IDA8L3RleHQ+PHJlY3QgZmlsbD0iI0YxRjFGMSIgaGVpZ2h0PSIzMi44NDM4IiByeD0iMTIuNSIgcnk9IjEyLjUiIHN0eWxlPSJzdHJva2U6IzE4MTgxODtzdHJva2Utd2lkdGg6MC41OyIgd2lkdGg9IjEwNCIgeD0iNjU1IiB5PSIxMjk1LjAzOTEiLz48dGV4dCBmaWxsPSIjMDAwMDAwIiBmb250LWZhbWlseT0ic2Fucy1zZXJpZiIgZm9udC1zaXplPSIxMiIgbGVuZ3RoQWRqdXN0PSJzcGFjaW5nIiB0ZXh0TGVuZ3RoPSI4NCIgeD0iNjY1IiB5PSIxMzE2LjM4MjgiPiYjMzM3MTk7JiMyMTQ2MjsmIzI0NDAzOyYjMjEwNjk7JiMyMzM4MzsmIzMxNTI2OyBpPC90ZXh0Pjxwb2x5Z29uIGZpbGw9IiNGMUYxRjEiIHBvaW50cz0iNTM3LDEzNDcuODgyOCw2NDgsMTM0Ny44ODI4LDY2MCwxMzU5Ljg4MjgsNjQ4LDEzNzEuODgyOCw1MzcsMTM3MS44ODI4LDUyNSwxMzU5Ljg4MjgsNTM3LDEzNDcuODgyOCIgc3R5bGU9InN0cm9rZTojMTgxODE4O3N0cm9rZS13aWR0aDowLjU7Ii8+PHRleHQgZmlsbD0iIzAwMDAwMCIgZm9udC1mYW1pbHk9InNhbnMtc2VyaWYiIGZvbnQtc2l6ZT0iMTEiIGxlbmd0aEFkanVzdD0ic3BhY2luZyIgdGV4dExlbmd0aD0iMTgiIHg9IjU5Ni41IiB5PSIxMzgyLjI4MTMiPnllczwvdGV4dD48dGV4dCBmaWxsPSIjMDAwMDAwIiBmb250LWZhbWlseT0ic2Fucy1zZXJpZiIgZm9udC1zaXplPSIxMSIgbGVuZ3RoQWRqdXN0PSJzcGFjaW5nIiB0ZXh0TGVuZ3RoPSIxMTEiIHg9IjUzNyIgeT0iMTM2NC4zOTQ1Ij5pJiMxOTk4MTsmIzI2MTU5OyYjMzY4MTY7JiMzMTYzOTsmIzMxNTI2OyYjMTk5ODg7aSYjMjYxNTk7JiMyMzM4MzsmIzI3NTk3OzwvdGV4dD48cmVjdCBmaWxsPSIjRjFGMUYxIiBoZWlnaHQ9IjMyLjg0MzgiIHJ4PSIxMi41IiByeT0iMTIuNSIgc3R5bGU9InN0cm9rZTojMTgxODE4O3N0cm9rZS13aWR0aDowLjU7IiB3aWR0aD0iMTU5IiB4PSI1MTMiIHk9IjE0MDMuNjU2MyIvPjx0ZXh0IGZpbGw9IiMwMDAwMDAiIGZvbnQtZmFtaWx5PSJzYW5zLXNlcmlmIiBmb250LXNpemU9IjEyIiBsZW5ndGhBZGp1c3Q9InNwYWNpbmciIHRleHRMZW5ndGg9IjEzOSIgeD0iNTIzIiB5PSIxNDI1Ij4mIzIyNzg4OyYjMjk3MDI7IENhbE9wZXJhdG9yRXJyb3I8L3RleHQ+PHBvbHlnb24gZmlsbD0iI0YxRjFGMSIgcG9pbnRzPSI3NTQsMTM0Ny44ODI4LDc4OSwxMzQ3Ljg4MjgsODAxLDEzNTkuODgyOCw3ODksMTM3MS44ODI4LDc1NCwxMzcxLjg4MjgsNzQyLDEzNTkuODgyOCw3NTQsMTM0Ny44ODI4IiBzdHlsZT0ic3Ryb2tlOiMxODE4MTg7c3Ryb2tlLXdpZHRoOjAuNTsiLz48dGV4dCBmaWxsPSIjMDAwMDAwIiBmb250LWZhbWlseT0ic2Fucy1zZXJpZiIgZm9udC1zaXplPSIxMSIgbGVuZ3RoQWRqdXN0PSJzcGFjaW5nIiB0ZXh0TGVuZ3RoPSIxOCIgeD0iNzc1LjUiIHk9IjEzODIuMjgxMyI+eWVzPC90ZXh0Pjx0ZXh0IGZpbGw9IiMwMDAwMDAiIGZvbnQtZmFtaWx5PSJzYW5zLXNlcmlmIiBmb250LXNpemU9IjExIiBsZW5ndGhBZGp1c3Q9InNwYWNpbmciIHRleHRMZW5ndGg9IjM1IiB4PSI3NTQiIHk9IjEzNjQuMzk0NSI+aSYjMjYxNTk7JywnPC90ZXh0PjxyZWN0IGZpbGw9IiNGMUYxRjEiIGhlaWdodD0iMzIuODQzOCIgcng9IjEyLjUiIHJ5PSIxMi41IiBzdHlsZT0ic3Ryb2tlOiMxODE4MTg7c3Ryb2tlLXdpZHRoOjAuNTsiIHdpZHRoPSIxNTkiIHg9IjY5MiIgeT0iMTQwMy42NTYzIi8+PHRleHQgZmlsbD0iIzAwMDAwMCIgZm9udC1mYW1pbHk9InNhbnMtc2VyaWYiIGZvbnQtc2l6ZT0iMTIiIGxlbmd0aEFkanVzdD0ic3BhY2luZyIgdGV4dExlbmd0aD0iMTM5IiB4PSI3MDIiIHk9IjE0MjUiPiYjMjI3ODg7JiMyOTcwMjsgQ2FsT3BlcmF0b3JFcnJvcjwvdGV4dD48cmVjdCBmaWxsPSIjRjFGMUYxIiBoZWlnaHQ9IjMyLjg0MzgiIHJ4PSIxMi41IiByeT0iMTIuNSIgc3R5bGU9InN0cm9rZTojMTgxODE4O3N0cm9rZS13aWR0aDowLjU7IiB3aWR0aD0iODYiIHg9IjY2NCIgeT0iMTQ3NC41Ii8+PHRleHQgZmlsbD0iIzAwMDAwMCIgZm9udC1mYW1pbHk9InNhbnMtc2VyaWYiIGZvbnQtc2l6ZT0iMTIiIGxlbmd0aEFkanVzdD0ic3BhY2luZyIgdGV4dExlbmd0aD0iNjYiIHg9IjY3NCIgeT0iMTQ5NS44NDM4Ij4mIzIyNjg2OyYjMjExNTI7IGkgJiMzMDM0MDsmIzIwNTQwOzwvdGV4dD48cG9seWdvbiBmaWxsPSIjRjFGMUYxIiBwb2ludHM9IjY5MiwxMjM5LjE0MDYsNzIyLDEyMzkuMTQwNiw3MzQsMTI1MS4xNDA2LDcyMiwxMjYzLjE0MDYsNjkyLDEyNjMuMTQwNiw2ODAsMTI1MS4xNDA2LDY5MiwxMjM5LjE0MDYiIHN0eWxlPSJzdHJva2U6IzE4MTgxODtzdHJva2Utd2lkdGg6MC41OyIvPjx0ZXh0IGZpbGw9IiMwMDAwMDAiIGZvbnQtZmFtaWx5PSJzYW5zLXNlcmlmIiBmb250LXNpemU9IjExIiBsZW5ndGhBZGp1c3Q9InNwYWNpbmciIHRleHRMZW5ndGg9IjIyIiB4PSI3MTEiIHk9IjEyNzMuNTM5MSI+JiMyNjQ2NTsmIzIwMjE0OzwvdGV4dD48dGV4dCBmaWxsPSIjMDAwMDAwIiBmb250LWZhbWlseT0ic2Fucy1zZXJpZiIgZm9udC1zaXplPSIxMSIgbGVuZ3RoQWRqdXN0PSJzcGFjaW5nIiB0ZXh0TGVuZ3RoPSIzMCIgeD0iNjkyIiB5PSIxMjU1LjY1MjMiPmkgJmx0OyBuPC90ZXh0Pjx0ZXh0IGZpbGw9IiMwMDAwMDAiIGZvbnQtZmFtaWx5PSJzYW5zLXNlcmlmIiBmb250LXNpemU9IjExIiBsZW5ndGhBZGp1c3Q9InNwYWNpbmciIHRleHRMZW5ndGg9IjIyIiB4PSI2NTgiIHk9IjEyNDkuNzY1NiI+JiMyNjQ2NTsmIzIwMjE0OzwvdGV4dD48cG9seWdvbiBmaWxsPSIjRjFGMUYxIiBwb2ludHM9IjQ0My41LDE1MzUuMzQzOCw0NTUuNSwxNTQ3LjM0MzgsNDQzLjUsMTU1OS4zNDM4LDQzMS41LDE1NDcuMzQzOCw0NDMuNSwxNTM1LjM0MzgiIHN0eWxlPSJzdHJva2U6IzE4MTgxODtzdHJva2Utd2lkdGg6MC41OyIvPjxlbGxpcHNlIGN4PSI0NDMuNSIgY3k9IjE1OTAuMzQzOCIgZmlsbD0ibm9uZSIgcng9IjExIiByeT0iMTEiIHN0eWxlPSJzdHJva2U6IzIyMjIyMjtzdHJva2Utd2lkdGg6MS4wOyIvPjxlbGxpcHNlIGN4PSI0NDMuNSIgY3k9IjE1OTAuMzQzOCIgZmlsbD0iIzIyMjIyMiIgcng9IjYiIHJ5PSI2IiBzdHlsZT0ic3Ryb2tlOiMxMTExMTE7c3Ryb2tlLXdpZHRoOjEuMDsiLz48bGluZSBzdHlsZT0ic3Ryb2tlOiMxODE4MTg7c3Ryb2tlLXdpZHRoOjEuMDsiIHgxPSI0NDMuNSIgeDI9IjQ0My41IiB5MT0iMzAiIHkyPSI1MCIvPjxwb2x5Z29uIGZpbGw9IiMxODE4MTgiIHBvaW50cz0iNDM5LjUsNDAsNDQzLjUsNTAsNDQ3LjUsNDAsNDQzLjUsNDQiIHN0eWxlPSJzdHJva2U6IzE4MTgxODtzdHJva2Utd2lkdGg6MS4wOyIvPjxsaW5lIHN0eWxlPSJzdHJva2U6IzE4MTgxODtzdHJva2Utd2lkdGg6MS4wOyIgeDE9IjQ0My41IiB4Mj0iNDQzLjUiIHkxPSI4Mi44NDM4IiB5Mj0iMTAyLjg0MzgiLz48cG9seWdvbiBmaWxsPSIjMTgxODE4IiBwb2ludHM9IjQzOS41LDkyLjg0MzgsNDQzLjUsMTAyLjg0MzgsNDQ3LjUsOTIuODQzOCw0NDMuNSw5Ni44NDM4IiBzdHlsZT0ic3Ryb2tlOiMxODE4MTg7c3Ryb2tlLXdpZHRoOjEuMDsiLz48bGluZSBzdHlsZT0ic3Ryb2tlOiMxODE4MTg7c3Ryb2tlLXdpZHRoOjEuMDsiIHgxPSI0NDMuNSIgeDI9IjQ0My41IiB5MT0iMTM1LjY4NzUiIHkyPSIxNTUuNjg3NSIvPjxwb2x5Z29uIGZpbGw9IiMxODE4MTgiIHBvaW50cz0iNDM5LjUsMTQ1LjY4NzUsNDQzLjUsMTU1LjY4NzUsNDQ3LjUsMTQ1LjY4NzUsNDQzLjUsMTQ5LjY4NzUiIHN0eWxlPSJzdHJva2U6IzE4MTgxODtzdHJva2Utd2lkdGg6MS4wOyIvPjxsaW5lIHN0eWxlPSJzdHJva2U6IzE4MTgxODtzdHJva2Utd2lkdGg6MS4wOyIgeDE9IjExMSIgeDI9IjExMSIgeTE9IjUzOS41MDc4IiB5Mj0iNTcwLjUwNzgiLz48bGluZSBzdHlsZT0ic3Ryb2tlOiMxODE4MTg7c3Ryb2tlLXdpZHRoOjEuMDsiIHgxPSIxMTEiIHgyPSIyNCIgeTE9IjU3MC41MDc4IiB5Mj0iNTcwLjUwNzgiLz48cG9seWdvbiBmaWxsPSIjMTgxODE4IiBwb2ludHM9IjM0LDU2Ni41MDc4LDI0LDU3MC41MDc4LDM0LDU3NC41MDc4LDMwLDU3MC41MDc4IiBzdHlsZT0ic3Ryb2tlOiMxODE4MTg7c3Ryb2tlLXdpZHRoOjEuMDsiLz48bGluZSBzdHlsZT0ic3Ryb2tlOiMxODE4MTg7c3Ryb2tlLXdpZHRoOjEuMDsiIHgxPSIyODEiIHgyPSIyODEiIHkxPSI1MzkuNTA3OCIgeTI9IjU3MC41MDc4Ii8+PGxpbmUgc3R5bGU9InN0cm9rZTojMTgxODE4O3N0cm9rZS13aWR0aDoxLjA7IiB4MT0iMjgxIiB4Mj0iMjQiIHkxPSI1NzAuNTA3OCIgeTI9IjU3MC41MDc4Ii8+PHBvbHlnb24gZmlsbD0iIzE4MTgxOCIgcG9pbnRzPSIzNCw1NjYuNTA3OCwyNCw1NzAuNTA3OCwzNCw1NzQuNTA3OCwzMCw1NzAuNTA3OCIgc3R5bGU9InN0cm9rZTojMTgxODE4O3N0cm9rZS13aWR0aDoxLjA7Ii8+PGxpbmUgc3R5bGU9InN0cm9rZTojMTgxODE4O3N0cm9rZS13aWR0aDoxLjA7IiB4MT0iNDYyLjUiIHgyPSI0NjIuNSIgeTE9IjUzOS41MDc4IiB5Mj0iNTcwLjUwNzgiLz48bGluZSBzdHlsZT0ic3Ryb2tlOiMxODE4MTg7c3Ryb2tlLXdpZHRoOjEuMDsiIHgxPSI0NjIuNSIgeDI9IjI0IiB5MT0iNTcwLjUwNzgiIHkyPSI1NzAuNTA3OCIvPjxwb2x5Z29uIGZpbGw9IiMxODE4MTgiIHBvaW50cz0iMzQsNTY2LjUwNzgsMjQsNTcwLjUwNzgsMzQsNTc0LjUwNzgsMzAsNTcwLjUwNzgiIHN0eWxlPSJzdHJva2U6IzE4MTgxODtzdHJva2Utd2lkdGg6MS4wOyIvPjxsaW5lIHN0eWxlPSJzdHJva2U6IzE4MTgxODtzdHJva2Utd2lkdGg6MS4wOyIgeDE9IjExMSIgeDI9IjExMSIgeTE9IjQ3NC44OTA2IiB5Mj0iNTA2LjY2NDEiLz48cG9seWdvbiBmaWxsPSIjMTgxODE4IiBwb2ludHM9IjEwNyw0OTYuNjY0MSwxMTEsNTA2LjY2NDEsMTE1LDQ5Ni42NjQxLDExMSw1MDAuNjY0MSIgc3R5bGU9InN0cm9rZTojMTgxODE4O3N0cm9rZS13aWR0aDoxLjA7Ii8+PGxpbmUgc3R5bGU9InN0cm9rZTojMTgxODE4O3N0cm9rZS13aWR0aDoxLjA7IiB4MT0iMjgxIiB4Mj0iMjgxIiB5MT0iNDc0Ljg5MDYiIHkyPSI1MDYuNjY0MSIvPjxwb2x5Z29uIGZpbGw9IiMxODE4MTgiIHBvaW50cz0iMjc3LDQ5Ni42NjQxLDI4MSw1MDYuNjY0MSwyODUsNDk2LjY2NDEsMjgxLDUwMC42NjQxIiBzdHlsZT0ic3Ryb2tlOiMxODE4MTg7c3Ryb2tlLXdpZHRoOjEuMDsiLz48bGluZSBzdHlsZT0ic3Ryb2tlOiMxODE4MTg7c3Ryb2tlLXdpZHRoOjEuMDsiIHgxPSI0NjIuNSIgeDI9IjQ2Mi41IiB5MT0iNDc0Ljg5MDYiIHkyPSI1MDYuNjY0MSIvPjxwb2x5Z29uIGZpbGw9IiMxODE4MTgiIHBvaW50cz0iNDU4LjUsNDk2LjY2NDEsNDYyLjUsNTA2LjY2NDEsNDY2LjUsNDk2LjY2NDEsNDYyLjUsNTAwLjY2NDEiIHN0eWxlPSJzdHJva2U6IzE4MTgxODtzdHJva2Utd2lkdGg6MS4wOyIvPjxsaW5lIHN0eWxlPSJzdHJva2U6IzE4MTgxODtzdHJva2Utd2lkdGg6MS4wOyIgeDE9IjE0NiIgeDI9IjIyNC41IiB5MT0iNDYyLjg5MDYiIHkyPSI0NjIuODkwNiIvPjxwb2x5Z29uIGZpbGw9IiMxODE4MTgiIHBvaW50cz0iMjE0LjUsNDU4Ljg5MDYsMjI0LjUsNDYyLjg5MDYsMjE0LjUsNDY2Ljg5MDYsMjE4LjUsNDYyLjg5MDYiIHN0eWxlPSJzdHJva2U6IzE4MTgxODtzdHJva2Utd2lkdGg6MS4wOyIvPjxsaW5lIHN0eWxlPSJzdHJva2U6IzE4MTgxODtzdHJva2Utd2lkdGg6MS4wOyIgeDE9IjMzNy41IiB4Mj0iMzc2IiB5MT0iNDYyLjg5MDYiIHkyPSI0NjIuODkwNiIvPjxwb2x5Z29uIGZpbGw9IiMxODE4MTgiIHBvaW50cz0iMzY2LDQ1OC44OTA2LDM3Niw0NjIuODkwNiwzNjYsNDY2Ljg5MDYsMzcwLDQ2Mi44OTA2IiBzdHlsZT0ic3Ryb2tlOiMxODE4MTg7c3Ryb2tlLXdpZHRoOjEuMDsiLz48bGluZSBzdHlsZT0ic3Ryb2tlOiMxODE4MTg7c3Ryb2tlLXdpZHRoOjEuMDsiIHgxPSIzMTcuNSIgeDI9IjMxNy41IiB5MT0iNDA1Ljg5MDYiIHkyPSI0MjUuODkwNiIvPjxsaW5lIHN0eWxlPSJzdHJva2U6IzE4MTgxODtzdHJva2Utd2lkdGg6MS4wOyIgeDE9IjMxNy41IiB4Mj0iMTExIiB5MT0iNDI1Ljg5MDYiIHkyPSI0MjUuODkwNiIvPjxsaW5lIHN0eWxlPSJzdHJva2U6IzE4MTgxODtzdHJva2Utd2lkdGg6MS4wOyIgeDE9IjExMSIgeDI9IjExMSIgeTE9IjQyNS44OTA2IiB5Mj0iNDUwLjg5MDYiLz48cG9seWdvbiBmaWxsPSIjMTgxODE4IiBwb2ludHM9IjEwNyw0NDAuODkwNiwxMTEsNDUwLjg5MDYsMTE1LDQ0MC44OTA2LDExMSw0NDQuODkwNiIgc3R5bGU9InN0cm9rZTojMTgxODE4O3N0cm9rZS13aWR0aDoxLjA7Ii8+PGxpbmUgc3R5bGU9InN0cm9rZTojMTgxODE4O3N0cm9rZS13aWR0aDoxLjA7IiB4MT0iNTQ5IiB4Mj0iNTg0IiB5MT0iNDYyLjg5MDYiIHkyPSI0NjIuODkwNiIvPjxsaW5lIHN0eWxlPSJzdHJva2U6IzE4MTgxODtzdHJva2Utd2lkdGg6MS4wOyIgeDE9IjU4NCIgeDI9IjU4NCIgeTE9IjQ2Mi44OTA2IiB5Mj0iNTc5LjUwNzgiLz48bGluZSBzdHlsZT0ic3Ryb2tlOiMxODE4MTg7c3Ryb2tlLXdpZHRoOjEuMDsiIHgxPSI1ODQiIHgyPSIzMTcuNSIgeTE9IjU3OS41MDc4IiB5Mj0iNTc5LjUwNzgiLz48bGluZSBzdHlsZT0ic3Ryb2tlOiMxODE4MTg7c3Ryb2tlLXdpZHRoOjEuMDsiIHgxPSIzMTcuNSIgeDI9IjMxNy41IiB5MT0iNTc5LjUwNzgiIHkyPSI1OTQuNTA3OCIvPjxwb2x5Z29uIGZpbGw9IiMxODE4MTgiIHBvaW50cz0iMzEzLjUsNTg0LjUwNzgsMzE3LjUsNTk0LjUwNzgsMzIxLjUsNTg0LjUwNzgsMzE3LjUsNTg4LjUwNzgiIHN0eWxlPSJzdHJva2U6IzE4MTgxODtzdHJva2Utd2lkdGg6MS4wOyIvPjxsaW5lIHN0eWxlPSJzdHJva2U6IzE4MTgxODtzdHJva2Utd2lkdGg6MS4wOyIgeDE9IjcwNCIgeDI9IjcwNCIgeTE9IjUwNi43MzQ0IiB5Mj0iNTQxLjczNDQiLz48bGluZSBzdHlsZT0ic3Ryb2tlOiMxODE4MTg7c3Ryb2tlLXdpZHRoOjEuMDsiIHgxPSI3MDQiIHgyPSIyNCIgeTE9IjU0MS43MzQ0IiB5Mj0iNTQxLjczNDQiLz48cG9seWdvbiBmaWxsPSIjMTgxODE4IiBwb2ludHM9IjM0LDUzNy43MzQ0LDI0LDU0MS43MzQ0LDM0LDU0NS43MzQ0LDMwLDU0MS43MzQ0IiBzdHlsZT0ic3Ryb2tlOiMxODE4MTg7c3Ryb2tlLXdpZHRoOjEuMDsiLz48bGluZSBzdHlsZT0ic3Ryb2tlOiMxODE4MTg7c3Ryb2tlLXdpZHRoOjEuMDsiIHgxPSI3MDQiIHgyPSI3MDQiIHkxPSI0NDkuODkwNiIgeTI9IjQ3My44OTA2Ii8+PHBvbHlnb24gZmlsbD0iIzE4MTgxOCIgcG9pbnRzPSI3MDAsNDYzLjg5MDYsNzA0LDQ3My44OTA2LDcwOCw0NjMuODkwNiw3MDQsNDY3Ljg5MDYiIHN0eWxlPSJzdHJva2U6IzE4MTgxODtzdHJva2Utd2lkdGg6MS4wOyIvPjxsaW5lIHN0eWxlPSJzdHJva2U6IzE4MTgxODtzdHJva2Utd2lkdGg6MS4wOyIgeDE9IjczMyIgeDI9Ijc4OSIgeTE9IjQzNy44OTA2IiB5Mj0iNDM3Ljg5MDYiLz48cG9seWdvbiBmaWxsPSIjMTgxODE4IiBwb2ludHM9Ijc4NSw0OTQuODEyNSw3ODksNTA0LjgxMjUsNzkzLDQ5NC44MTI1LDc4OSw0OTguODEyNSIgc3R5bGU9InN0cm9rZTojMTgxODE4O3N0cm9rZS13aWR0aDoxLjA7Ii8+PGxpbmUgc3R5bGU9InN0cm9rZTojMTgxODE4O3N0cm9rZS13aWR0aDoxLjA7IiB4MT0iNzg5IiB4Mj0iNzg5IiB5MT0iNDM3Ljg5MDYiIHkyPSI1NjcuNzM0NCIvPjxsaW5lIHN0eWxlPSJzdHJva2U6IzE4MTgxODtzdHJva2Utd2lkdGg6MS4wOyIgeDE9Ijc4OSIgeDI9IjcwNCIgeTE9IjU2Ny43MzQ0IiB5Mj0iNTY3LjczNDQiLz48bGluZSBzdHlsZT0ic3Ryb2tlOiMxODE4MTg7c3Ryb2tlLXdpZHRoOjEuMDsiIHgxPSI3MDQiIHgyPSI3MDQiIHkxPSI1NjcuNzM0NCIgeTI9IjU5NC41MDc4Ii8+PHBvbHlnb24gZmlsbD0iIzE4MTgxOCIgcG9pbnRzPSI3MDAsNTg0LjUwNzgsNzA0LDU5NC41MDc4LDcwOCw1ODQuNTA3OCw3MDQsNTg4LjUwNzgiIHN0eWxlPSJzdHJva2U6IzE4MTgxODtzdHJva2Utd2lkdGg6MS4wOyIvPjxsaW5lIHN0eWxlPSJzdHJva2U6IzE4MTgxODtzdHJva2Utd2lkdGg6MS4wOyIgeDE9IjcwNCIgeDI9IjcwNCIgeTE9IjQwNS44OTA2IiB5Mj0iNDI1Ljg5MDYiLz48cG9seWdvbiBmaWxsPSIjMTgxODE4IiBwb2ludHM9IjcwMCw0MTUuODkwNiw3MDQsNDI1Ljg5MDYsNzA4LDQxNS44OTA2LDcwNCw0MTkuODkwNiIgc3R5bGU9InN0cm9rZTojMTgxODE4O3N0cm9rZS13aWR0aDoxLjA7Ii8+PGxpbmUgc3R5bGU9InN0cm9rZTojMTgxODE4O3N0cm9rZS13aWR0aDoxLjA7IiB4MT0iMzE3LjUiIHgyPSIzMTcuNSIgeTE9IjM0MS4yNzM0IiB5Mj0iMzczLjA0NjkiLz48cG9seWdvbiBmaWxsPSIjMTgxODE4IiBwb2ludHM9IjMxMy41LDM2My4wNDY5LDMxNy41LDM3My4wNDY5LDMyMS41LDM2My4wNDY5LDMxNy41LDM2Ny4wNDY5IiBzdHlsZT0ic3Ryb2tlOiMxODE4MTg7c3Ryb2tlLXdpZHRoOjEuMDsiLz48bGluZSBzdHlsZT0ic3Ryb2tlOiMxODE4MTg7c3Ryb2tlLXdpZHRoOjEuMDsiIHgxPSI3MDQiIHgyPSI3MDQiIHkxPSIzNDEuMjczNCIgeTI9IjM3My4wNDY5Ii8+PHBvbHlnb24gZmlsbD0iIzE4MTgxOCIgcG9pbnRzPSI3MDAsMzYzLjA0NjksNzA0LDM3My4wNDY5LDcwOCwzNjMuMDQ2OSw3MDQsMzY3LjA0NjkiIHN0eWxlPSJzdHJva2U6IzE4MTgxODtzdHJva2Utd2lkdGg6MS4wOyIvPjxsaW5lIHN0eWxlPSJzdHJva2U6IzE4MTgxODtzdHJva2Utd2lkdGg6MS4wOyIgeDE9IjM0NyIgeDI9IjY3NC41IiB5MT0iMzI5LjI3MzQiIHkyPSIzMjkuMjczNCIvPjxwb2x5Z29uIGZpbGw9IiMxODE4MTgiIHBvaW50cz0iNjY0LjUsMzI1LjI3MzQsNjc0LjUsMzI5LjI3MzQsNjY0LjUsMzMzLjI3MzQsNjY4LjUsMzI5LjI3MzQiIHN0eWxlPSJzdHJva2U6IzE4MTgxODtzdHJva2Utd2lkdGg6MS4wOyIvPjxsaW5lIHN0eWxlPSJzdHJva2U6IzE4MTgxODtzdHJva2Utd2lkdGg6MS4wOyIgeDE9IjQ0My41IiB4Mj0iNDQzLjUiIHkxPSIyOTcuMjczNCIgeTI9IjMwMi4yNzM0Ii8+PGxpbmUgc3R5bGU9InN0cm9rZTojMTgxODE4O3N0cm9rZS13aWR0aDoxLjA7IiB4MT0iNDQzLjUiIHgyPSIzMTcuNSIgeTE9IjMwMi4yNzM0IiB5Mj0iMzAyLjI3MzQiLz48bGluZSBzdHlsZT0ic3Ryb2tlOiMxODE4MTg7c3Ryb2tlLXdpZHRoOjEuMDsiIHgxPSIzMTcuNSIgeDI9IjMxNy41IiB5MT0iMzAyLjI3MzQiIHkyPSIzMTcuMjczNCIvPjxwb2x5Z29uIGZpbGw9IiMxODE4MTgiIHBvaW50cz0iMzEzLjUsMzA3LjI3MzQsMzE3LjUsMzE3LjI3MzQsMzIxLjUsMzA3LjI3MzQsMzE3LjUsMzExLjI3MzQiIHN0eWxlPSJzdHJva2U6IzE4MTgxODtzdHJva2Utd2lkdGg6MS4wOyIvPjxsaW5lIHN0eWxlPSJzdHJva2U6IzE4MTgxODtzdHJva2Utd2lkdGg6MS4wOyIgeDE9IjczMy41IiB4Mj0iODM2IiB5MT0iMzI5LjI3MzQiIHkyPSIzMjkuMjczNCIvPjxsaW5lIHN0eWxlPSJzdHJva2U6IzE4MTgxODtzdHJva2Utd2lkdGg6MS4wOyIgeDE9IjgzNiIgeDI9IjgzNiIgeTE9IjMyOS4yNzM0IiB5Mj0iNTk0LjUwNzgiLz48cG9seWdvbiBmaWxsPSIjMTgxODE4IiBwb2ludHM9IjgzMiw1ODQuNTA3OCw4MzYsNTk0LjUwNzgsODQwLDU4NC41MDc4LDgzNiw1ODguNTA3OCIgc3R5bGU9InN0cm9rZTojMTgxODE4O3N0cm9rZS13aWR0aDoxLjA7Ii8+PGxpbmUgc3R5bGU9InN0cm9rZTojMTgxODE4O3N0cm9rZS13aWR0aDoxLjA7IiB4MT0iMzE3LjUiIHgyPSI4MzYiIHkxPSI1OTQuNTA3OCIgeTI9IjU5NC41MDc4Ii8+PGxpbmUgc3R5bGU9InN0cm9rZTojMTgxODE4O3N0cm9rZS13aWR0aDoxLjA7IiB4MT0iNDQzLjUiIHgyPSI0NDMuNSIgeTE9IjU5NC41MDc4IiB5Mj0iNjE0LjUwNzgiLz48cG9seWdvbiBmaWxsPSIjMTgxODE4IiBwb2ludHM9IjQzOS41LDYwNC41MDc4LDQ0My41LDYxNC41MDc4LDQ0Ny41LDYwNC41MDc4LDQ0My41LDYwOC41MDc4IiBzdHlsZT0ic3Ryb2tlOiMxODE4MTg7c3Ryb2tlLXdpZHRoOjEuMDsiLz48bGluZSBzdHlsZT0ic3Ryb2tlOiMxODE4MTg7c3Ryb2tlLXdpZHRoOjEuMDsiIHgxPSI0NDMuNSIgeDI9IjQ0My41IiB5MT0iMjMyLjUzMTMiIHkyPSIyNjQuNDI5NyIvPjxwb2x5Z29uIGZpbGw9IiMxODE4MTgiIHBvaW50cz0iNDM5LjUsMjU0LjQyOTcsNDQzLjUsMjY0LjQyOTcsNDQ3LjUsMjU0LjQyOTcsNDQzLjUsMjU4LjQyOTciIHN0eWxlPSJzdHJva2U6IzE4MTgxODtzdHJva2Utd2lkdGg6MS4wOyIvPjxsaW5lIHN0eWxlPSJzdHJva2U6IzE4MTgxODtzdHJva2Utd2lkdGg6MS4wOyIgeDE9IjQ0My41IiB4Mj0iNDQzLjUiIHkxPSI2NDcuMzUxNiIgeTI9IjY1Ny4zNTE2Ii8+PGxpbmUgc3R5bGU9InN0cm9rZTojMTgxODE4O3N0cm9rZS13aWR0aDoxLjA7IiB4MT0iNDQzLjUiIHgyPSI4NjMiIHkxPSI2NTcuMzUxNiIgeTI9IjY1Ny4zNTE2Ii8+PHBvbHlnb24gZmlsbD0iIzE4MTgxOCIgcG9pbnRzPSI4NTksNDkzLjAwMzksODYzLDQ4My4wMDM5LDg2Nyw0OTMuMDAzOSw4NjMsNDg5LjAwMzkiIHN0eWxlPSJzdHJva2U6IzE4MTgxODtzdHJva2Utd2lkdGg6MS4wOyIvPjxsaW5lIHN0eWxlPSJzdHJva2U6IzE4MTgxODtzdHJva2Utd2lkdGg6MS4wOyIgeDE9Ijg2MyIgeDI9Ijg2MyIgeTE9IjIyMC41MzEzIiB5Mj0iNjU3LjM1MTYiLz48bGluZSBzdHlsZT0ic3Ryb2tlOiMxODE4MTg7c3Ryb2tlLXdpZHRoOjEuMDsiIHgxPSI4NjMiIHgyPSI0NzAuNSIgeTE9IjIyMC41MzEzIiB5Mj0iMjIwLjUzMTMiLz48cG9seWdvbiBmaWxsPSIjMTgxODE4IiBwb2ludHM9IjQ4MC41LDIxNi41MzEzLDQ3MC41LDIyMC41MzEzLDQ4MC41LDIyNC41MzEzLDQ3Ni41LDIyMC41MzEzIiBzdHlsZT0ic3Ryb2tlOiMxODE4MTg7c3Ryb2tlLXdpZHRoOjEuMDsiLz48bGluZSBzdHlsZT0ic3Ryb2tlOiMxODE4MTg7c3Ryb2tlLXdpZHRoOjEuMDsiIHgxPSI0MTYuNSIgeDI9IjI0IiB5MT0iMjIwLjUzMTMiIHkyPSIyMjAuNTMxMyIvPjxwb2x5Z29uIGZpbGw9IiMxODE4MTgiIHBvaW50cz0iMjAsNDc5LjAwMzksMjQsNDg5LjAwMzksMjgsNDc5LjAwMzksMjQsNDgzLjAwMzkiIHN0eWxlPSJzdHJva2U6IzE4MTgxODtzdHJva2Utd2lkdGg6MS4wOyIvPjxsaW5lIHN0eWxlPSJzdHJva2U6IzE4MTgxODtzdHJva2Utd2lkdGg6MS4wOyIgeDE9IjI0IiB4Mj0iMjQiIHkxPSIyMjAuNTMxMyIgeTI9IjY2OS4zNTE2Ii8+PGxpbmUgc3R5bGU9InN0cm9rZTojMTgxODE4O3N0cm9rZS13aWR0aDoxLjA7IiB4MT0iMjQiIHgyPSI0NDMuNSIgeTE9IjY2OS4zNTE2IiB5Mj0iNjY5LjM1MTYiLz48bGluZSBzdHlsZT0ic3Ryb2tlOiMxODE4MTg7c3Ryb2tlLXdpZHRoOjEuMDsiIHgxPSI0NDMuNSIgeDI9IjQ0My41IiB5MT0iNjY5LjM1MTYiIHkyPSI2ODkuMzUxNiIvPjxwb2x5Z29uIGZpbGw9IiMxODE4MTgiIHBvaW50cz0iNDM5LjUsNjc5LjM1MTYsNDQzLjUsNjg5LjM1MTYsNDQ3LjUsNjc5LjM1MTYsNDQzLjUsNjgzLjM1MTYiIHN0eWxlPSJzdHJva2U6IzE4MTgxODtzdHJva2Utd2lkdGg6MS4wOyIvPjxsaW5lIHN0eWxlPSJzdHJva2U6IzE4MTgxODtzdHJva2Utd2lkdGg6MS4wOyIgeDE9IjQ0My41IiB4Mj0iNDQzLjUiIHkxPSIxODguNTMxMyIgeTI9IjIwOC41MzEzIi8+PHBvbHlnb24gZmlsbD0iIzE4MTgxOCIgcG9pbnRzPSI0MzkuNSwxOTguNTMxMyw0NDMuNSwyMDguNTMxMyw0NDcuNSwxOTguNTMxMyw0NDMuNSwyMDIuNTMxMyIgc3R5bGU9InN0cm9rZTojMTgxODE4O3N0cm9rZS13aWR0aDoxLjA7Ii8+PGxpbmUgc3R5bGU9InN0cm9rZTojMTgxODE4O3N0cm9rZS13aWR0aDoxLjA7IiB4MT0iMzg4LjUiIHgyPSIzODguNSIgeTE9IjEwMjkuNDUzMSIgeTI9IjEwNDMuNDUzMSIvPjxsaW5lIHN0eWxlPSJzdHJva2U6IzE4MTgxODtzdHJva2Utd2lkdGg6MS4wOyIgeDE9IjM4OC41IiB4Mj0iMjg3IiB5MT0iMTA0My40NTMxIiB5Mj0iMTA0My40NTMxIi8+PHBvbHlnb24gZmlsbD0iIzE4MTgxOCIgcG9pbnRzPSIyOTcsMTAzOS40NTMxLDI4NywxMDQzLjQ1MzEsMjk3LDEwNDcuNDUzMSwyOTMsMTA0My40NTMxIiBzdHlsZT0ic3Ryb2tlOiMxODE4MTg7c3Ryb2tlLXdpZHRoOjEuMDsiLz48bGluZSBzdHlsZT0ic3Ryb2tlOiMxODE4MTg7c3Ryb2tlLXdpZHRoOjEuMDsiIHgxPSI2MTMuNSIgeDI9IjYxMy41IiB5MT0iMTAyOS40NTMxIiB5Mj0iMTA0My40NTMxIi8+PGxpbmUgc3R5bGU9InN0cm9rZTojMTgxODE4O3N0cm9rZS13aWR0aDoxLjA7IiB4MT0iNjEzLjUiIHgyPSIyODciIHkxPSIxMDQzLjQ1MzEiIHkyPSIxMDQzLjQ1MzEiLz48cG9seWdvbiBmaWxsPSIjMTgxODE4IiBwb2ludHM9IjI5NywxMDM5LjQ1MzEsMjg3LDEwNDMuNDUzMSwyOTcsMTA0Ny40NTMxLDI5MywxMDQzLjQ1MzEiIHN0eWxlPSJzdHJva2U6IzE4MTgxODtzdHJva2Utd2lkdGg6MS4wOyIvPjxsaW5lIHN0eWxlPSJzdHJva2U6IzE4MTgxODtzdHJva2Utd2lkdGg6MS4wOyIgeDE9IjkwNyIgeDI9IjkwNyIgeTE9IjEwMjkuNDUzMSIgeTI9IjEwNDMuNDUzMSIvPjxsaW5lIHN0eWxlPSJzdHJva2U6IzE4MTgxODtzdHJva2Utd2lkdGg6MS4wOyIgeDE9IjkwNyIgeDI9IjI4NyIgeTE9IjEwNDMuNDUzMSIgeTI9IjEwNDMuNDUzMSIvPjxwb2x5Z29uIGZpbGw9IiMxODE4MTgiIHBvaW50cz0iMjk3LDEwMzkuNDUzMSwyODcsMTA0My40NTMxLDI5NywxMDQ3LjQ1MzEsMjkzLDEwNDMuNDUzMSIgc3R5bGU9InN0cm9rZTojMTgxODE4O3N0cm9rZS13aWR0aDoxLjA7Ii8+PGxpbmUgc3R5bGU9InN0cm9rZTojMTgxODE4O3N0cm9rZS13aWR0aDoxLjA7IiB4MT0iMzg4LjUiIHgyPSIzODguNSIgeTE9Ijk2NC44MzU5IiB5Mj0iOTk2LjYwOTQiLz48cG9seWdvbiBmaWxsPSIjMTgxODE4IiBwb2ludHM9IjM4NC41LDk4Ni42MDk0LDM4OC41LDk5Ni42MDk0LDM5Mi41LDk4Ni42MDk0LDM4OC41LDk5MC42MDk0IiBzdHlsZT0ic3Ryb2tlOiMxODE4MTg7c3Ryb2tlLXdpZHRoOjEuMDsiLz48bGluZSBzdHlsZT0ic3Ryb2tlOiMxODE4MTg7c3Ryb2tlLXdpZHRoOjEuMDsiIHgxPSI2MTMuNSIgeDI9IjYxMy41IiB5MT0iOTY0LjgzNTkiIHkyPSI5OTYuNjA5NCIvPjxwb2x5Z29uIGZpbGw9IiMxODE4MTgiIHBvaW50cz0iNjA5LjUsOTg2LjYwOTQsNjEzLjUsOTk2LjYwOTQsNjE3LjUsOTg2LjYwOTQsNjEzLjUsOTkwLjYwOTQiIHN0eWxlPSJzdHJva2U6IzE4MTgxODtzdHJva2Utd2lkdGg6MS4wOyIvPjxsaW5lIHN0eWxlPSJzdHJva2U6IzE4MTgxODtzdHJva2Utd2lkdGg6MS4wOyIgeDE9IjkwNyIgeDI9IjkwNyIgeTE9Ijk2NC44MzU5IiB5Mj0iOTk2LjYwOTQiLz48cG9seWdvbiBmaWxsPSIjMTgxODE4IiBwb2ludHM9IjkwMyw5ODYuNjA5NCw5MDcsOTk2LjYwOTQsOTExLDk4Ni42MDk0LDkwNyw5OTAuNjA5NCIgc3R5bGU9InN0cm9rZTojMTgxODE4O3N0cm9rZS13aWR0aDoxLjA7Ii8+PGxpbmUgc3R5bGU9InN0cm9rZTojMTgxODE4O3N0cm9rZS13aWR0aDoxLjA7IiB4MT0iNDIzLjUiIHgyPSI0ODgiIHkxPSI5NTIuODM1OSIgeTI9Ijk1Mi44MzU5Ii8+PHBvbHlnb24gZmlsbD0iIzE4MTgxOCIgcG9pbnRzPSI0NzgsOTQ4LjgzNTksNDg4LDk1Mi44MzU5LDQ3OCw5NTYuODM1OSw0ODIsOTUyLjgzNTkiIHN0eWxlPSJzdHJva2U6IzE4MTgxODtzdHJva2Utd2lkdGg6MS4wOyIvPjxsaW5lIHN0eWxlPSJzdHJva2U6IzE4MTgxODtzdHJva2Utd2lkdGg6MS4wOyIgeDE9IjczOSIgeDI9Ijc1OSIgeTE9Ijk1Mi44MzU5IiB5Mj0iOTUyLjgzNTkiLz48cG9seWdvbiBmaWxsPSIjMTgxODE4IiBwb2ludHM9Ijc0OSw5NDguODM1OSw3NTksOTUyLjgzNTksNzQ5LDk1Ni44MzU5LDc1Myw5NTIuODM1OSIgc3R5bGU9InN0cm9rZTojMTgxODE4O3N0cm9rZS13aWR0aDoxLjA7Ii8+PGxpbmUgc3R5bGU9InN0cm9rZTojMTgxODE4O3N0cm9rZS13aWR0aDoxLjA7IiB4MT0iNzA3IiB4Mj0iNzA3IiB5MT0iOTA4LjkzNzUiIHkyPSI5MjUuODM1OSIvPjxsaW5lIHN0eWxlPSJzdHJva2U6IzE4MTgxODtzdHJva2Utd2lkdGg6MS4wOyIgeDE9IjcwNyIgeDI9IjM4OC41IiB5MT0iOTI1LjgzNTkiIHkyPSI5MjUuODM1OSIvPjxsaW5lIHN0eWxlPSJzdHJva2U6IzE4MTgxODtzdHJva2Utd2lkdGg6MS4wOyIgeDE9IjM4OC41IiB4Mj0iMzg4LjUiIHkxPSI5MjUuODM1OSIgeTI9Ijk0MC44MzU5Ii8+PHBvbHlnb24gZmlsbD0iIzE4MTgxOCIgcG9pbnRzPSIzODQuNSw5MzAuODM1OSwzODguNSw5NDAuODM1OSwzOTIuNSw5MzAuODM1OSwzODguNSw5MzQuODM1OSIgc3R5bGU9InN0cm9rZTojMTgxODE4O3N0cm9rZS13aWR0aDoxLjA7Ii8+PGxpbmUgc3R5bGU9InN0cm9rZTojMTgxODE4O3N0cm9rZS13aWR0aDoxLjA7IiB4MT0iMTA1NSIgeDI9IjEwNjAiIHkxPSI5NTIuODM1OSIgeTI9Ijk1Mi44MzU5Ii8+PGxpbmUgc3R5bGU9InN0cm9rZTojMTgxODE4O3N0cm9rZS13aWR0aDoxLjA7IiB4MT0iMTA2MCIgeDI9IjEwNjAiIHkxPSI5NTIuODM1OSIgeTI9IjEwNTIuNDUzMSIvPjxsaW5lIHN0eWxlPSJzdHJva2U6IzE4MTgxODtzdHJva2Utd2lkdGg6MS4wOyIgeDE9IjEwNjAiIHgyPSI3MDciIHkxPSIxMDUyLjQ1MzEiIHkyPSIxMDUyLjQ1MzEiLz48bGluZSBzdHlsZT0ic3Ryb2tlOiMxODE4MTg7c3Ryb2tlLXdpZHRoOjEuMDsiIHgxPSI3MDciIHgyPSI3MDciIHkxPSIxMDUyLjQ1MzEiIHkyPSIxMDY3LjQ1MzEiLz48cG9seWdvbiBmaWxsPSIjMTgxODE4IiBwb2ludHM9IjcwMywxMDU3LjQ1MzEsNzA3LDEwNjcuNDUzMSw3MTEsMTA1Ny40NTMxLDcwNywxMDYxLjQ1MzEiIHN0eWxlPSJzdHJva2U6IzE4MTgxODtzdHJva2Utd2lkdGg6MS4wOyIvPjxsaW5lIHN0eWxlPSJzdHJva2U6IzE4MTgxODtzdHJva2Utd2lkdGg6MS4wOyIgeDE9Ijc0NCIgeDI9IjEwNjkiIHkxPSI4OTYuOTM3NSIgeTI9Ijg5Ni45Mzc1Ii8+PHBvbHlnb24gZmlsbD0iIzE4MTgxOCIgcG9pbnRzPSIxMDY1LDEwMTcuNjQ0NSwxMDY5LDEwMjcuNjQ0NSwxMDczLDEwMTcuNjQ0NSwxMDY5LDEwMjEuNjQ0NSIgc3R5bGU9InN0cm9rZTojMTgxODE4O3N0cm9rZS13aWR0aDoxLjA7Ii8+PGxpbmUgc3R5bGU9InN0cm9rZTojMTgxODE4O3N0cm9rZS13aWR0aDoxLjA7IiB4MT0iMTA2OSIgeDI9IjEwNjkiIHkxPSI4OTYuOTM3NSIgeTI9IjEwNzkuNDUzMSIvPjxsaW5lIHN0eWxlPSJzdHJva2U6IzE4MTgxODtzdHJva2Utd2lkdGg6MS4wOyIgeDE9IjEwNjkiIHgyPSI3MTkiIHkxPSIxMDc5LjQ1MzEiIHkyPSIxMDc5LjQ1MzEiLz48cG9seWdvbiBmaWxsPSIjMTgxODE4IiBwb2ludHM9IjcyOSwxMDc1LjQ1MzEsNzE5LDEwNzkuNDUzMSw3MjksMTA4My40NTMxLDcyNSwxMDc5LjQ1MzEiIHN0eWxlPSJzdHJva2U6IzE4MTgxODtzdHJva2Utd2lkdGg6MS4wOyIvPjxsaW5lIHN0eWxlPSJzdHJva2U6IzE4MTgxODtzdHJva2Utd2lkdGg6MS4wOyIgeDE9IjcwNyIgeDI9IjcwNyIgeTE9Ijg2NC45Mzc1IiB5Mj0iODg0LjkzNzUiLz48cG9seWdvbiBmaWxsPSIjMTgxODE4IiBwb2ludHM9IjcwMyw4NzQuOTM3NSw3MDcsODg0LjkzNzUsNzExLDg3NC45Mzc1LDcwNyw4NzguOTM3NSIgc3R5bGU9InN0cm9rZTojMTgxODE4O3N0cm9rZS13aWR0aDoxLjA7Ii8+PGxpbmUgc3R5bGU9InN0cm9rZTojMTgxODE4O3N0cm9rZS13aWR0aDoxLjA7IiB4MT0iNzA3IiB4Mj0iNzA3IiB5MT0iMTA5MS40NTMxIiB5Mj0iMTExMS40NTMxIi8+PHBvbHlnb24gZmlsbD0iIzE4MTgxOCIgcG9pbnRzPSI3MDMsMTEwMS40NTMxLDcwNywxMTExLjQ1MzEsNzExLDExMDEuNDUzMSw3MDcsMTEwNS40NTMxIiBzdHlsZT0ic3Ryb2tlOiMxODE4MTg7c3Ryb2tlLXdpZHRoOjEuMDsiLz48bGluZSBzdHlsZT0ic3Ryb2tlOiMxODE4MTg7c3Ryb2tlLXdpZHRoOjEuMDsiIHgxPSI3MDciIHgyPSI3MDciIHkxPSI4MDAuMTk1MyIgeTI9IjgzMi4wOTM4Ii8+PHBvbHlnb24gZmlsbD0iIzE4MTgxOCIgcG9pbnRzPSI3MDMsODIyLjA5MzgsNzA3LDgzMi4wOTM4LDcxMSw4MjIuMDkzOCw3MDcsODI2LjA5MzgiIHN0eWxlPSJzdHJva2U6IzE4MTgxODtzdHJva2Utd2lkdGg6MS4wOyIvPjxsaW5lIHN0eWxlPSJzdHJva2U6IzE4MTgxODtzdHJva2Utd2lkdGg6MS4wOyIgeDE9IjcwNyIgeDI9IjcwNyIgeTE9IjExNDQuMjk2OSIgeTI9IjExNTQuMjk2OSIvPjxsaW5lIHN0eWxlPSJzdHJva2U6IzE4MTgxODtzdHJva2Utd2lkdGg6MS4wOyIgeDE9IjcwNyIgeDI9IjEwODciIHkxPSIxMTU0LjI5NjkiIHkyPSIxMTU0LjI5NjkiLz48cG9seWdvbiBmaWxsPSIjMTgxODE4IiBwb2ludHM9IjEwODMsMTAxOS43NTc4LDEwODcsMTAwOS43NTc4LDEwOTEsMTAxOS43NTc4LDEwODcsMTAxNS43NTc4IiBzdHlsZT0ic3Ryb2tlOiMxODE4MTg7c3Ryb2tlLXdpZHRoOjEuMDsiLz48bGluZSBzdHlsZT0ic3Ryb2tlOiMxODE4MTg7c3Ryb2tlLXdpZHRoOjEuMDsiIHgxPSIxMDg3IiB4Mj0iMTA4NyIgeTE9Ijc4OC4xOTUzIiB5Mj0iMTE1NC4yOTY5Ii8+PGxpbmUgc3R5bGU9InN0cm9rZTojMTgxODE4O3N0cm9rZS13aWR0aDoxLjA7IiB4MT0iMTA4NyIgeDI9IjczNCIgeTE9Ijc4OC4xOTUzIiB5Mj0iNzg4LjE5NTMiLz48cG9seWdvbiBmaWxsPSIjMTgxODE4IiBwb2ludHM9Ijc0NCw3ODQuMTk1Myw3MzQsNzg4LjE5NTMsNzQ0LDc5Mi4xOTUzLDc0MCw3ODguMTk1MyIgc3R5bGU9InN0cm9rZTojMTgxODE4O3N0cm9rZS13aWR0aDoxLjA7Ii8+PGxpbmUgc3R5bGU9InN0cm9rZTojMTgxODE4O3N0cm9rZS13aWR0aDoxLjA7IiB4MT0iNjgwIiB4Mj0iMjg3IiB5MT0iNzg4LjE5NTMiIHkyPSI3ODguMTk1MyIvPjxwb2x5Z29uIGZpbGw9IiMxODE4MTgiIHBvaW50cz0iMjgzLDEwMDUuNzU3OCwyODcsMTAxNS43NTc4LDI5MSwxMDA1Ljc1NzgsMjg3LDEwMDkuNzU3OCIgc3R5bGU9InN0cm9rZTojMTgxODE4O3N0cm9rZS13aWR0aDoxLjA7Ii8+PGxpbmUgc3R5bGU9InN0cm9rZTojMTgxODE4O3N0cm9rZS13aWR0aDoxLjA7IiB4MT0iMjg3IiB4Mj0iMjg3IiB5MT0iNzg4LjE5NTMiIHkyPSIxMTY2LjI5NjkiLz48bGluZSBzdHlsZT0ic3Ryb2tlOiMxODE4MTg7c3Ryb2tlLXdpZHRoOjEuMDsiIHgxPSIyODciIHgyPSI3MDciIHkxPSIxMTY2LjI5NjkiIHkyPSIxMTY2LjI5NjkiLz48bGluZSBzdHlsZT0ic3Ryb2tlOiMxODE4MTg7c3Ryb2tlLXdpZHRoOjEuMDsiIHgxPSI3MDciIHgyPSI3MDciIHkxPSIxMTY2LjI5NjkiIHkyPSIxMTg2LjI5NjkiLz48cG9seWdvbiBmaWxsPSIjMTgxODE4IiBwb2ludHM9IjcwMywxMTc2LjI5NjksNzA3LDExODYuMjk2OSw3MTEsMTE3Ni4yOTY5LDcwNywxMTgwLjI5NjkiIHN0eWxlPSJzdHJva2U6IzE4MTgxODtzdHJva2Utd2lkdGg6MS4wOyIvPjxsaW5lIHN0eWxlPSJzdHJva2U6IzE4MTgxODtzdHJva2Utd2lkdGg6MS4wOyIgeDE9IjcwNyIgeDI9IjcwNyIgeTE9Ijc1Ni4xOTUzIiB5Mj0iNzc2LjE5NTMiLz48cG9seWdvbiBmaWxsPSIjMTgxODE4IiBwb2ludHM9IjcwMyw3NjYuMTk1Myw3MDcsNzc2LjE5NTMsNzExLDc2Ni4xOTUzLDcwNyw3NzAuMTk1MyIgc3R5bGU9InN0cm9rZTojMTgxODE4O3N0cm9rZS13aWR0aDoxLjA7Ii8+PGxpbmUgc3R5bGU9InN0cm9rZTojMTgxODE4O3N0cm9rZS13aWR0aDoxLjA7IiB4MT0iNTkyLjUiIHgyPSI1OTIuNSIgeTE9IjE0MzYuNSIgeTI9IjE0NTAuNSIvPjxsaW5lIHN0eWxlPSJzdHJva2U6IzE4MTgxODtzdHJva2Utd2lkdGg6MS4wOyIgeDE9IjU5Mi41IiB4Mj0iNTAxIiB5MT0iMTQ1MC41IiB5Mj0iMTQ1MC41Ii8+PHBvbHlnb24gZmlsbD0iIzE4MTgxOCIgcG9pbnRzPSI1MTEsMTQ0Ni41LDUwMSwxNDUwLjUsNTExLDE0NTQuNSw1MDcsMTQ1MC41IiBzdHlsZT0ic3Ryb2tlOiMxODE4MTg7c3Ryb2tlLXdpZHRoOjEuMDsiLz48bGluZSBzdHlsZT0ic3Ryb2tlOiMxODE4MTg7c3Ryb2tlLXdpZHRoOjEuMDsiIHgxPSI3NzEuNSIgeDI9Ijc3MS41IiB5MT0iMTQzNi41IiB5Mj0iMTQ1MC41Ii8+PGxpbmUgc3R5bGU9InN0cm9rZTojMTgxODE4O3N0cm9rZS13aWR0aDoxLjA7IiB4MT0iNzcxLjUiIHgyPSI1MDEiIHkxPSIxNDUwLjUiIHkyPSIxNDUwLjUiLz48cG9seWdvbiBmaWxsPSIjMTgxODE4IiBwb2ludHM9IjUxMSwxNDQ2LjUsNTAxLDE0NTAuNSw1MTEsMTQ1NC41LDUwNywxNDUwLjUiIHN0eWxlPSJzdHJva2U6IzE4MTgxODtzdHJva2Utd2lkdGg6MS4wOyIvPjxsaW5lIHN0eWxlPSJzdHJva2U6IzE4MTgxODtzdHJva2Utd2lkdGg6MS4wOyIgeDE9IjU5Mi41IiB4Mj0iNTkyLjUiIHkxPSIxMzcxLjg4MjgiIHkyPSIxNDAzLjY1NjMiLz48cG9seWdvbiBmaWxsPSIjMTgxODE4IiBwb2ludHM9IjU4OC41LDEzOTMuNjU2Myw1OTIuNSwxNDAzLjY1NjMsNTk2LjUsMTM5My42NTYzLDU5Mi41LDEzOTcuNjU2MyIgc3R5bGU9InN0cm9rZTojMTgxODE4O3N0cm9rZS13aWR0aDoxLjA7Ii8+PGxpbmUgc3R5bGU9InN0cm9rZTojMTgxODE4O3N0cm9rZS13aWR0aDoxLjA7IiB4MT0iNzcxLjUiIHgyPSI3NzEuNSIgeTE9IjEzNzEuODgyOCIgeTI9IjE0MDMuNjU2MyIvPjxwb2x5Z29uIGZpbGw9IiMxODE4MTgiIHBvaW50cz0iNzY3LjUsMTM5My42NTYzLDc3MS41LDE0MDMuNjU2Myw3NzUuNSwxMzkzLjY1NjMsNzcxLjUsMTM5Ny42NTYzIiBzdHlsZT0ic3Ryb2tlOiMxODE4MTg7c3Ryb2tlLXdpZHRoOjEuMDsiLz48bGluZSBzdHlsZT0ic3Ryb2tlOiMxODE4MTg7c3Ryb2tlLXdpZHRoOjEuMDsiIHgxPSI2NjAiIHgyPSI3NDIiIHkxPSIxMzU5Ljg4MjgiIHkyPSIxMzU5Ljg4MjgiLz48cG9seWdvbiBmaWxsPSIjMTgxODE4IiBwb2ludHM9IjczMiwxMzU1Ljg4MjgsNzQyLDEzNTkuODgyOCw3MzIsMTM2My44ODI4LDczNiwxMzU5Ljg4MjgiIHN0eWxlPSJzdHJva2U6IzE4MTgxODtzdHJva2Utd2lkdGg6MS4wOyIvPjxsaW5lIHN0eWxlPSJzdHJva2U6IzE4MTgxODtzdHJva2Utd2lkdGg6MS4wOyIgeDE9IjcwNyIgeDI9IjcwNyIgeTE9IjEzMjcuODgyOCIgeTI9IjEzMzIuODgyOCIvPjxsaW5lIHN0eWxlPSJzdHJva2U6IzE4MTgxODtzdHJva2Utd2lkdGg6MS4wOyIgeDE9IjcwNyIgeDI9IjU5Mi41IiB5MT0iMTMzMi44ODI4IiB5Mj0iMTMzMi44ODI4Ii8+PGxpbmUgc3R5bGU9InN0cm9rZTojMTgxODE4O3N0cm9rZS13aWR0aDoxLjA7IiB4MT0iNTkyLjUiIHgyPSI1OTIuNSIgeTE9IjEzMzIuODgyOCIgeTI9IjEzNDcuODgyOCIvPjxwb2x5Z29uIGZpbGw9IiMxODE4MTgiIHBvaW50cz0iNTg4LjUsMTMzNy44ODI4LDU5Mi41LDEzNDcuODgyOCw1OTYuNSwxMzM3Ljg4MjgsNTkyLjUsMTM0MS44ODI4IiBzdHlsZT0ic3Ryb2tlOiMxODE4MTg7c3Ryb2tlLXdpZHRoOjEuMDsiLz48bGluZSBzdHlsZT0ic3Ryb2tlOiMxODE4MTg7c3Ryb2tlLXdpZHRoOjEuMDsiIHgxPSI4MDEiIHgyPSI4ODYiIHkxPSIxMzU5Ljg4MjgiIHkyPSIxMzU5Ljg4MjgiLz48bGluZSBzdHlsZT0ic3Ryb2tlOiMxODE4MTg7c3Ryb2tlLXdpZHRoOjEuMDsiIHgxPSI4ODYiIHgyPSI4ODYiIHkxPSIxMzU5Ljg4MjgiIHkyPSIxNDU5LjUiLz48bGluZSBzdHlsZT0ic3Ryb2tlOiMxODE4MTg7c3Ryb2tlLXdpZHRoOjEuMDsiIHgxPSI4ODYiIHgyPSI3MDciIHkxPSIxNDU5LjUiIHkyPSIxNDU5LjUiLz48bGluZSBzdHlsZT0ic3Ryb2tlOiMxODE4MTg7c3Ryb2tlLXdpZHRoOjEuMDsiIHgxPSI3MDciIHgyPSI3MDciIHkxPSIxNDU5LjUiIHkyPSIxNDc0LjUiLz48cG9seWdvbiBmaWxsPSIjMTgxODE4IiBwb2ludHM9IjcwMywxNDY0LjUsNzA3LDE0NzQuNSw3MTEsMTQ2NC41LDcwNywxNDY4LjUiIHN0eWxlPSJzdHJva2U6IzE4MTgxODtzdHJva2Utd2lkdGg6MS4wOyIvPjxsaW5lIHN0eWxlPSJzdHJva2U6IzE4MTgxODtzdHJva2Utd2lkdGg6MS4wOyIgeDE9IjcwNyIgeDI9IjcwNyIgeTE9IjEyNjMuMTQwNiIgeTI9IjEyOTUuMDM5MSIvPjxwb2x5Z29uIGZpbGw9IiMxODE4MTgiIHBvaW50cz0iNzAzLDEyODUuMDM5MSw3MDcsMTI5NS4wMzkxLDcxMSwxMjg1LjAzOTEsNzA3LDEyODkuMDM5MSIgc3R5bGU9InN0cm9rZTojMTgxODE4O3N0cm9rZS13aWR0aDoxLjA7Ii8+PGxpbmUgc3R5bGU9InN0cm9rZTojMTgxODE4O3N0cm9rZS13aWR0aDoxLjA7IiB4MT0iNzA3IiB4Mj0iNzA3IiB5MT0iMTUwNy4zNDM4IiB5Mj0iMTUxNy4zNDM4Ii8+PGxpbmUgc3R5bGU9InN0cm9rZTojMTgxODE4O3N0cm9rZS13aWR0aDoxLjA7IiB4MT0iNzA3IiB4Mj0iOTEzIiB5MT0iMTUxNy4zNDM4IiB5Mj0iMTUxNy4zNDM4Ii8+PHBvbHlnb24gZmlsbD0iIzE4MTgxOCIgcG9pbnRzPSI5MDksMTQyNi44MDQ3LDkxMywxNDE2LjgwNDcsOTE3LDE0MjYuODA0Nyw5MTMsMTQyMi44MDQ3IiBzdHlsZT0ic3Ryb2tlOiMxODE4MTg7c3Ryb2tlLXdpZHRoOjEuMDsiLz48bGluZSBzdHlsZT0ic3Ryb2tlOiMxODE4MTg7c3Ryb2tlLXdpZHRoOjEuMDsiIHgxPSI5MTMiIHgyPSI5MTMiIHkxPSIxMjUxLjE0MDYiIHkyPSIxNTE3LjM0MzgiLz48bGluZSBzdHlsZT0ic3Ryb2tlOiMxODE4MTg7c3Ryb2tlLXdpZHRoOjEuMDsiIHgxPSI5MTMiIHgyPSI3MzQiIHkxPSIxMjUxLjE0MDYiIHkyPSIxMjUxLjE0MDYiLz48cG9seWdvbiBmaWxsPSIjMTgxODE4IiBwb2ludHM9Ijc0NCwxMjQ3LjE0MDYsNzM0LDEyNTEuMTQwNiw3NDQsMTI1NS4xNDA2LDc0MCwxMjUxLjE0MDYiIHN0eWxlPSJzdHJva2U6IzE4MTgxODtzdHJva2Utd2lkdGg6MS4wOyIvPjxsaW5lIHN0eWxlPSJzdHJva2U6IzE4MTgxODtzdHJva2Utd2lkdGg6MS4wOyIgeDE9IjY4MCIgeDI9IjUwMSIgeTE9IjEyNTEuMTQwNiIgeTI9IjEyNTEuMTQwNiIvPjxwb2x5Z29uIGZpbGw9IiMxODE4MTgiIHBvaW50cz0iNDk3LDE0MjEuODA0Nyw1MDEsMTQzMS44MDQ3LDUwNSwxNDIxLjgwNDcsNTAxLDE0MjUuODA0NyIgc3R5bGU9InN0cm9rZTojMTgxODE4O3N0cm9rZS13aWR0aDoxLjA7Ii8+PGxpbmUgc3R5bGU9InN0cm9rZTojMTgxODE4O3N0cm9rZS13aWR0aDoxLjA7IiB4MT0iNTAxIiB4Mj0iNTAxIiB5MT0iMTI1MS4xNDA2IiB5Mj0iMTU0Ny4zNDM4Ii8+PGxpbmUgc3R5bGU9InN0cm9rZTojMTgxODE4O3N0cm9rZS13aWR0aDoxLjA7IiB4MT0iNTAxIiB4Mj0iNDU1LjUiIHkxPSIxNTQ3LjM0MzgiIHkyPSIxNTQ3LjM0MzgiLz48cG9seWdvbiBmaWxsPSIjMTgxODE4IiBwb2ludHM9IjQ2NS41LDE1NDMuMzQzOCw0NTUuNSwxNTQ3LjM0MzgsNDY1LjUsMTU1MS4zNDM4LDQ2MS41LDE1NDcuMzQzOCIgc3R5bGU9InN0cm9rZTojMTgxODE4O3N0cm9rZS13aWR0aDoxLjA7Ii8+PGxpbmUgc3R5bGU9InN0cm9rZTojMTgxODE4O3N0cm9rZS13aWR0aDoxLjA7IiB4MT0iNzA3IiB4Mj0iNzA3IiB5MT0iMTIxOS4xNDA2IiB5Mj0iMTIzOS4xNDA2Ii8+PHBvbHlnb24gZmlsbD0iIzE4MTgxOCIgcG9pbnRzPSI3MDMsMTIyOS4xNDA2LDcwNywxMjM5LjE0MDYsNzExLDEyMjkuMTQwNiw3MDcsMTIzMy4xNDA2IiBzdHlsZT0ic3Ryb2tlOiMxODE4MTg7c3Ryb2tlLXdpZHRoOjEuMDsiLz48bGluZSBzdHlsZT0ic3Ryb2tlOiMxODE4MTg7c3Ryb2tlLXdpZHRoOjEuMDsiIHgxPSI0MDkiIHgyPSIxODAiIHkxPSI3MDEuMzUxNiIgeTI9IjcwMS4zNTE2Ii8+PGxpbmUgc3R5bGU9InN0cm9rZTojMTgxODE4O3N0cm9rZS13aWR0aDoxLjA7IiB4MT0iMTgwIiB4Mj0iMTgwIiB5MT0iNzAxLjM1MTYiIHkyPSI3MjMuMzUxNiIvPjxwb2x5Z29uIGZpbGw9IiMxODE4MTgiIHBvaW50cz0iMTc2LDcxMy4zNTE2LDE4MCw3MjMuMzUxNiwxODQsNzEzLjM1MTYsMTgwLDcxNy4zNTE2IiBzdHlsZT0ic3Ryb2tlOiMxODE4MTg7c3Ryb2tlLXdpZHRoOjEuMDsiLz48bGluZSBzdHlsZT0ic3Ryb2tlOiMxODE4MTg7c3Ryb2tlLXdpZHRoOjEuMDsiIHgxPSI0NzgiIHgyPSI3MDciIHkxPSI3MDEuMzUxNiIgeTI9IjcwMS4zNTE2Ii8+PGxpbmUgc3R5bGU9InN0cm9rZTojMTgxODE4O3N0cm9rZS13aWR0aDoxLjA7IiB4MT0iNzA3IiB4Mj0iNzA3IiB5MT0iNzAxLjM1MTYiIHkyPSI3MjMuMzUxNiIvPjxwb2x5Z29uIGZpbGw9IiMxODE4MTgiIHBvaW50cz0iNzAzLDcxMy4zNTE2LDcwNyw3MjMuMzUxNiw3MTEsNzEzLjM1MTYsNzA3LDcxNy4zNTE2IiBzdHlsZT0ic3Ryb2tlOiMxODE4MTg7c3Ryb2tlLXdpZHRoOjEuMDsiLz48bGluZSBzdHlsZT0ic3Ryb2tlOiMxODE4MTg7c3Ryb2tlLXdpZHRoOjEuMDsiIHgxPSIxODAiIHgyPSIxODAiIHkxPSI3NTYuMTk1MyIgeTI9IjE1NDcuMzQzOCIvPjxsaW5lIHN0eWxlPSJzdHJva2U6IzE4MTgxODtzdHJva2Utd2lkdGg6MS4wOyIgeDE9IjE4MCIgeDI9IjQzMS41IiB5MT0iMTU0Ny4zNDM4IiB5Mj0iMTU0Ny4zNDM4Ii8+PHBvbHlnb24gZmlsbD0iIzE4MTgxOCIgcG9pbnRzPSI0MjEuNSwxNTQzLjM0MzgsNDMxLjUsMTU0Ny4zNDM4LDQyMS41LDE1NTEuMzQzOCw0MjUuNSwxNTQ3LjM0MzgiIHN0eWxlPSJzdHJva2U6IzE4MTgxODtzdHJva2Utd2lkdGg6MS4wOyIvPjxsaW5lIHN0eWxlPSJzdHJva2U6IzE4MTgxODtzdHJva2Utd2lkdGg6MS4wOyIgeDE9IjQ0My41IiB4Mj0iNDQzLjUiIHkxPSIxNTU5LjM0MzgiIHkyPSIxNTc5LjM0MzgiLz48cG9seWdvbiBmaWxsPSIjMTgxODE4IiBwb2ludHM9IjQzOS41LDE1NjkuMzQzOCw0NDMuNSwxNTc5LjM0MzgsNDQ3LjUsMTU2OS4zNDM4LDQ0My41LDE1NzMuMzQzOCIgc3R5bGU9InN0cm9rZTojMTgxODE4O3N0cm9rZS13aWR0aDoxLjA7Ii8+PCEtLVNSQz1balBKREppOTA1OE50RkNOVEtROGFpME5UUTVweDBDUDVySTVDSVdmZlF1bXg1cUo0ZjFJWjgyN0hBMzZpdjZUWDUxNzJvdEhRVTBqZHNqQU1WbkRtSFNrUEUtVlVDenpLTGRYOTJTSTZYSS1ZYlI2T0VMVkNRZFBLNmYxa05PbTdPYlhLRzgxVFlEMWRxZ3BndHRkcGVxUHc5UTlMSFphRGkyclQ5NzRBME9UWDF5R0dPMWF1dS1iTF9fYUMxRzJTaEtkX2RrSExxZFdxdC1rMHVySjAyTGZYTDVmMUJYVzI5T2I0dTJ3SHA0ZmU0UWF6YXppTldWUDJoZGZud3B6aGxUZDh3enMyNjh4RWJCMllqd25QbDhQekZoS2R5UVMyS1d1YUFJdDU3VmI0R2huV2x3MktaRXB6c0MxN1UyandwMWU5MUpVcWd6dkh4S09aVWtWMXlHWFI3YVFmSkpET1JkRU9HSEFsZkFNNUZrOFBKV0p5VldrUVp2NlNIamZ0Q29hQWZBc252alFSVGpvNXktaVM2S0xZUjRTTDF1bW4zUFF2NXl3S19xOWxEWVpKSHBkTHgzVmQwR1ltM0M0YjQ3ZU8zV1Q1aXljNEVRY2lINl9yLUtyYXZwaXg3dThxNjlTR1puak5PRlRhZXpSRUgxN1pmaW52YUN4bG1YS09QbmxmbWk3Nl9wSUJhQUxFR1ZJbDhEWDNrWW9tMEVXeE5NWXFyM0xseFNIanRHdmt2WGxtcnozaXpSQUlwbG0yXS0tPjwvZz48L3N2Zz4=;" vertex="1" parent="1">
            <mxGeometry x="-140" y="-420" width="1113" height="1612" as="geometry" />
          </mxCell>
        </UserObject>
      </root>
    </mxGraphModel>
  </diagram>
</mxfile>
